  0
SECTION
  2
HEADER
  9
$ACADVER
  1
AC1009
  9
$DWGCODEPAGE
  3
ansi_1252
  9
$INSBASE
 10
0.0
 20
0.0
 30
0.0
  9
$EXTMIN
 10
-4.8399188051
 20
6.4819001482
 30
0.0
  9
$EXTMAX
 10
-3.0036407909
 20
7.1471829232
 30
0.0
  9
$LIMMIN
 10
0.0
 20
0.0
  9
$LIMMAX
 10
12.0
 20
9.0
  9
$ORTHOMODE
 70
     0
  9
$REGENMODE
 70
     1
  9
$FILLMODE
 70
     1
  9
$QTEXTMODE
 70
     0
  9
$MIRRTEXT
 70
     1
  9
$DRAGMODE
 70
     2
  9
$LTSCALE
 40
1.0
  9
$OSMODE
 70
    37
  9
$ATTMODE
 70
     1
  9
$TEXTSIZE
 40
0.1377952756
  9
$TRACEWID
 40
0.05
  9
$TEXTSTYLE
  7
STANDARD
  9
$CLAYER
  8
0
  9
$CELTYPE
  6
BYLAYER
  9
$CECOLOR
 62
   256
  9
$DIMSCALE
 40
1.0
  9
$DIMASZ
 40
0.13
  9
$DIMEXO
 40
0.0393700787
  9
$DIMDLI
 40
0.38
  9
$DIMRND
 40
0.0
  9
$DIMDLE
 40
0.0
  9
$DIMEXE
 40
0.0393700787
  9
$DIMTP
 40
0.0
  9
$DIMTM
 40
0.0
  9
$DIMTXT
 40
0.1377952756
  9
$DIMCEN
 40
0.09
  9
$DIMTSZ
 40
0.0
  9
$DIMTOL
 70
     0
  9
$DIMLIM
 70
     0
  9
$DIMTIH
 70
     1
  9
$DIMTOH
 70
     1
  9
$DIMSE1
 70
     0
  9
$DIMSE2
 70
     0
  9
$DIMTAD
 70
     1
  9
$DIMZIN
 70
     0
  9
$DIMBLK
  1

  9
$DIMASO
 70
     1
  9
$DIMSHO
 70
     1
  9
$DIMPOST
  1

  9
$DIMAPOST
  1

  9
$DIMALT
 70
     0
  9
$DIMALTD
 70
     2
  9
$DIMALTF
 40
25.4
  9
$DIMLFAC
 40
1.0
  9
$DIMTOFL
 70
     0
  9
$DIMTVP
 40
0.0
  9
$DIMTIX
 70
     0
  9
$DIMSOXD
 70
     0
  9
$DIMSAH
 70
     0
  9
$DIMBLK1
  1

  9
$DIMBLK2
  1

  9
$DIMSTYLE
  2
STANDARD
  9
$DIMCLRD
 70
     0
  9
$DIMCLRE
 70
     0
  9
$DIMCLRT
 70
     0
  9
$DIMTFAC
 40
1.0
  9
$DIMGAP
 40
0.06
  9
$LUNITS
 70
     2
  9
$LUPREC
 70
     2
  9
$SKETCHINC
 40
0.1
  9
$FILLETRAD
 40
0.5
  9
$AUNITS
 70
     0
  9
$AUPREC
 70
     2
  9
$MENU
  1
.
  9
$ELEVATION
 40
0.0
  9
$PELEVATION
 40
0.0
  9
$THICKNESS
 40
0.0
  9
$LIMCHECK
 70
     0
  9
$CHAMFERA
 40
0.0
  9
$CHAMFERB
 40
0.0
  9
$SKPOLY
 70
     0
  9
$TDCREATE
 40
2457836.713905208
  9
$TDUPDATE
 40
2457836.713944155
  9
$TDINDWG
 40
0.0000000116
  9
$TDUSRTIMER
 40
0.0000000116
  9
$USRTIMER
 70
     1
  9
$ANGBASE
 50
0.0
  9
$ANGDIR
 70
     0
  9
$PDMODE
 70
     0
  9
$PDSIZE
 40
-1.0
  9
$PLINEWID
 40
0.0
  9
$COORDS
 70
     1
  9
$SPLFRAME
 70
     0
  9
$SPLINETYPE
 70
     6
  9
$SPLINESEGS
 70
     8
  9
$ATTDIA
 70
     0
  9
$ATTREQ
 70
     1
  9
$HANDLING
 70
     1
  9
$HANDSEED
  5
1B5
  9
$SURFTAB1
 70
     6
  9
$SURFTAB2
 70
     6
  9
$SURFTYPE
 70
     6
  9
$SURFU
 70
     6
  9
$SURFV
 70
     6
  9
$UCSNAME
  2

  9
$UCSORG
 10
0.0
 20
0.0
 30
0.0
  9
$UCSXDIR
 10
1.0
 20
0.0
 30
0.0
  9
$UCSYDIR
 10
0.0
 20
1.0
 30
0.0
  9
$PUCSNAME
  2

  9
$PUCSORG
 10
0.0
 20
0.0
 30
0.0
  9
$PUCSXDIR
 10
1.0
 20
0.0
 30
0.0
  9
$PUCSYDIR
 10
0.0
 20
1.0
 30
0.0
  9
$USERI1
 70
     0
  9
$USERI2
 70
     0
  9
$USERI3
 70
     0
  9
$USERI4
 70
     0
  9
$USERI5
 70
     0
  9
$USERR1
 40
0.0
  9
$USERR2
 40
0.0
  9
$USERR3
 40
0.0
  9
$USERR4
 40
0.0
  9
$USERR5
 40
0.0
  9
$WORLDVIEW
 70
     1
  9
$SHADEDGE
 70
     3
  9
$SHADEDIF
 70
    70
  9
$TILEMODE
 70
     1
  9
$MAXACTVP
 70
    64
  9
$PLIMCHECK
 70
     0
  9
$PEXTMIN
 10
1.0000000000E+20
 20
1.0000000000E+20
 30
1.0000000000E+20
  9
$PEXTMAX
 10
-1.0000000000E+20
 20
-1.0000000000E+20
 30
-1.0000000000E+20
  9
$PLIMMIN
 10
0.0
 20
0.0
  9
$PLIMMAX
 10
12.0
 20
9.0
  9
$UNITMODE
 70
     0
  9
$VISRETAIN
 70
     1
  9
$PLINEGEN
 70
     0
  9
$PSLTSCALE
 70
     1
  0
ENDSEC
  0
SECTION
  2
TABLES
  0
TABLE
  2
VPORT
 70
     1
  0
VPORT
  2
*ACTIVE
 70
     0
 10
0.0
 20
0.0
 11
1.0
 21
1.0
 12
-3.921779798
 22
6.8145415357
 13
0.0
 23
0.0
 14
0.5
 24
0.5
 15
0.5
 25
0.5
 16
0.0
 26
0.0
 36
1.0
 17
0.0
 27
0.0
 37
0.0
 40
0.6785884305
 41
2.7601466371
 42
50.0
 43
0.0
 44
0.0
 50
0.0
 51
0.0
 71
     0
 72
   100
 73
     1
 74
     3
 75
     0
 76
     0
 77
     0
 78
     0
  0
ENDTAB
  0
TABLE
  2
LTYPE
 70
     6
  0
LTYPE
  2
CONTINUOUS
 70
     0
  3
Solid line
 72
    65
 73
     0
 40
0.0
  0
LTYPE
  2
HIDDEN
 70
     0
  3
Hidden __ __ __ __ __ __ __ __ __ __ __ __ __ __
 72
    65
 73
     2
 40
0.075
 49
0.05
 49
-0.025
  0
LTYPE
  2
PHANTOM
 70
     0
  3
Phantom ______  __  __  ______  __  __  ______
 72
    65
 73
     6
 40
0.5
 49
0.25
 49
-0.05
 49
0.05
 49
-0.05
 49
0.05
 49
-0.05
  0
LTYPE
  2
CENTER
 70
     0
  3
Center ____ _ ____ _ ____ _ ____ _ ____ _ ____
 72
    65
 73
     4
 40
0.4
 49
0.25
 49
-0.05
 49
0.05
 49
-0.05
  0
LTYPE
  2
CENTERX2
 70
     0
  3
Center (2x) ________  __  ________  __  _____
 72
    65
 73
     4
 40
0.8
 49
0.5
 49
-0.1
 49
0.1
 49
-0.1
  0
LTYPE
  2
DOT2
 70
     0
  3
Dot (.5x) ........................................
 72
    65
 73
     2
 40
0.025
 49
0.0
 49
-0.025
  0
ENDTAB
  0
TABLE
  2
LAYER
 70
     1
  0
LAYER
  2
0
 70
     0
 62
     7
  6
CONTINUOUS
  0
ENDTAB
  0
TABLE
  2
STYLE
 70
     1
  0
STYLE
  2
STANDARD
 70
     0
 40
0.0
 41
1.0
 50
0.0
 71
     0
 42
0.1377952756
  3
txt
  4

  0
ENDTAB
  0
TABLE
  2
VIEW
 70
     0
  0
ENDTAB
  0
TABLE
  2
UCS
 70
     0
  0
ENDTAB
  0
TABLE
  2
APPID
 70
     1
  0
APPID
  2
ACAD
 70
     0
  0
ENDTAB
  0
TABLE
  2
DIMSTYLE
 70
     1
  0
DIMSTYLE
  2
STANDARD
 70
     0
  3

  4

  5

  6

  7

 40
1.0
 41
0.18
 42
0.0625
 43
0.38
 44
0.18
 45
0.0
 46
0.0
 47
0.0
 48
0.0
140
0.18
141
0.09
142
0.0
143
25.4
144
1.0
145
0.0
146
1.0
147
0.09
 71
     0
 72
     0
 73
     1
 74
     1
 75
     0
 76
     0
 77
     0
 78
     0
170
     0
171
     2
172
     0
173
     0
174
     0
175
     0
176
     0
177
     0
178
     0
  0
ENDTAB
  0
ENDSEC
  0
SECTION
  2
BLOCKS
  0
BLOCK
  8
0
  2
$MODEL_SPACE
 70
     0
 10
0.0
 20
0.0
 30
0.0
  3
$MODEL_SPACE
  1

  0
ENDBLK
  5
21
  8
0
  0
BLOCK
 67
     1
  8
0
  2
$PAPER_SPACE
 70
     0
 10
0.0
 20
0.0
 30
0.0
  3
$PAPER_SPACE
  1

  0
ENDBLK
  5
1D
 67
     1
  8
0
  0
ENDSEC
  0
SECTION
  2
ENTITIES
  0
CIRCLE
  5
73
  8
0
  6
CONTINUOUS
 62
     7
 10
-4.6627534507
 20
6.6590655025
 30
0.0
 40
0.0787401574795288
  0
POLYLINE
  5
7D
  8
0
  6
CONTINUOUS
 62
     7
 66
     1
 10
0.0
 20
0.0
 30
0.0
 70
   128
  0
VERTEX
  5
114
  8
0
  6
CONTINUOUS
 62
     7
 10
-4.4075682283
 20
6.8105974482
 30
0.0
  0
VERTEX
  5
115
  8
0
  6
CONTINUOUS
 62
     7
 10
-4.4080898127
 20
6.8124119644
 30
0.0
  0
VERTEX
  5
116
  8
0
  6
CONTINUOUS
 62
     7
 10
-4.4087104477
 20
6.8137605172
 30
0.0
  0
SEQEND
  5
195
  8
0
  6
CONTINUOUS
 62
     7
  0
POLYLINE
  5
7E
  8
0
  6
CONTINUOUS
 62
     7
 66
     1
 10
0.0
 20
0.0
 30
0.0
 70
   128
  0
VERTEX
  5
117
  8
0
  6
CONTINUOUS
 62
     7
 10
-4.4087104477
 20
6.8137605172
 30
0.0
  0
VERTEX
  5
118
  8
0
  6
CONTINUOUS
 62
     7
 10
-4.408945822
 20
6.8154841878
 30
0.0
  0
VERTEX
  5
119
  8
0
  6
CONTINUOUS
 62
     7
 10
-4.4091497629
 20
6.8168357232
 30
0.0
  0
SEQEND
  5
196
  8
0
  6
CONTINUOUS
 62
     7
  0
POLYLINE
  5
83
  8
0
  6
CONTINUOUS
 62
     7
 66
     1
 10
0.0
 20
0.0
 30
0.0
 70
   128
  0
VERTEX
  5
11A
  8
0
  6
CONTINUOUS
 62
     7
 10
-4.5183635075
 20
6.8102020646
 30
0.0
  0
VERTEX
  5
11B
  8
0
  6
CONTINUOUS
 62
     7
 10
-4.5182955499
 20
6.8077653155
 30
0.0
  0
VERTEX
  5
11C
  8
0
  6
CONTINUOUS
 62
     7
 10
-4.5181877814
 20
6.8058528447
 30
0.0
  0
SEQEND
  5
197
  8
0
  6
CONTINUOUS
 62
     7
  0
POLYLINE
  5
84
  8
0
  6
CONTINUOUS
 62
     7
 66
     1
 10
0.0
 20
0.0
 30
0.0
 70
   128
  0
VERTEX
  5
11D
  8
0
  6
CONTINUOUS
 62
     7
 10
-4.5181877814
 20
6.8058528447
 30
0.0
  0
VERTEX
  5
11E
  8
0
  6
CONTINUOUS
 62
     7
 10
-4.5181857044
 20
6.804988853
 30
0.0
  0
VERTEX
  5
11F
  8
0
  6
CONTINUOUS
 62
     7
 10
-4.5180999184
 20
6.8043152417
 30
0.0
  0
SEQEND
  5
198
  8
0
  6
CONTINUOUS
 62
     7
  0
POLYLINE
  5
85
  8
0
  6
CONTINUOUS
 62
     7
 66
     1
 10
0.0
 20
0.0
 30
0.0
 70
   128
  0
VERTEX
  5
120
  8
0
  6
CONTINUOUS
 62
     7
 10
-4.5180999184
 20
6.8043152417
 30
0.0
  0
VERTEX
  5
121
  8
0
  6
CONTINUOUS
 62
     7
 10
-4.5180736546
 20
6.8023464662
 30
0.0
  0
VERTEX
  5
122
  8
0
  6
CONTINUOUS
 62
     7
 10
-4.5181877814
 20
6.8008007205
 30
0.0
  0
SEQEND
  5
199
  8
0
  6
CONTINUOUS
 62
     7
  0
POLYLINE
  5
86
  8
0
  6
CONTINUOUS
 62
     7
 66
     1
 10
0.0
 20
0.0
 30
0.0
 70
   128
  0
VERTEX
  5
123
  8
0
  6
CONTINUOUS
 62
     7
 10
-4.5181877814
 20
6.8008007205
 30
0.0
  0
VERTEX
  5
124
  8
0
  6
CONTINUOUS
 62
     7
 10
-4.5182805108
 20
6.8002120024
 30
0.0
  0
VERTEX
  5
125
  8
0
  6
CONTINUOUS
 62
     7
 10
-4.5182401193
 20
6.7999013146
 30
0.0
  0
VERTEX
  5
126
  8
0
  6
CONTINUOUS
 62
     7
 10
-4.5180893471
 20
6.7996494451
 30
0.0
  0
VERTEX
  5
127
  8
0
  6
CONTINUOUS
 62
     7
 10
-4.5177760351
 20
6.7995355396
 30
0.0
  0
VERTEX
  5
128
  8
0
  6
CONTINUOUS
 62
     7
 10
-4.5174284598
 20
6.7995319199
 30
0.0
  0
VERTEX
  5
129
  8
0
  6
CONTINUOUS
 62
     7
 10
-4.5169137675
 20
6.7996145696
 30
0.0
  0
SEQEND
  5
19A
  8
0
  6
CONTINUOUS
 62
     7
  0
POLYLINE
  5
87
  8
0
  6
CONTINUOUS
 62
     7
 66
     1
 10
0.0
 20
0.0
 30
0.0
 70
   128
  0
VERTEX
  5
12A
  8
0
  6
CONTINUOUS
 62
     7
 10
-4.5169137675
 20
6.7996145696
 30
0.0
  0
VERTEX
  5
12B
  8
0
  6
CONTINUOUS
 62
     7
 10
-4.4999693668
 20
6.8048571454
 30
0.0
  0
VERTEX
  5
12C
  8
0
  6
CONTINUOUS
 62
     7
 10
-4.4866010226
 20
6.8087962561
 30
0.0
  0
SEQEND
  5
19B
  8
0
  6
CONTINUOUS
 62
     7
  0
POLYLINE
  5
8B
  8
0
  6
CONTINUOUS
 62
     7
 66
     1
 10
0.0
 20
0.0
 30
0.0
 70
   128
  0
VERTEX
  5
12D
  8
0
  6
CONTINUOUS
 62
     7
 10
-4.4703024308
 20
6.8289608212
 30
0.0
  0
VERTEX
  5
12E
  8
0
  6
CONTINUOUS
 62
     7
 10
-4.4692414768
 20
6.829531152
 30
0.0
  0
VERTEX
  5
12F
  8
0
  6
CONTINUOUS
 62
     7
 10
-4.4683255127
 20
6.82979552
 30
0.0
  0
SEQEND
  5
19C
  8
0
  6
CONTINUOUS
 62
     7
  0
POLYLINE
  5
8E
  8
0
  6
CONTINUOUS
 62
     7
 66
     1
 10
0.0
 20
0.0
 30
0.0
 70
   128
  0
VERTEX
  5
130
  8
0
  6
CONTINUOUS
 62
     7
 10
-4.44794129
 20
6.8185929838
 30
0.0
  0
VERTEX
  5
131
  8
0
  6
CONTINUOUS
 62
     7
 10
-4.4444299572
 20
6.8055834824
 30
0.0
  0
VERTEX
  5
132
  8
0
  6
CONTINUOUS
 62
     7
 10
-4.441703015
 20
6.7953532127
 30
0.0
  0
SEQEND
  5
19D
  8
0
  6
CONTINUOUS
 62
     7
  0
POLYLINE
  5
8F
  8
0
  6
CONTINUOUS
 62
     7
 66
     1
 10
0.0
 20
0.0
 30
0.0
 70
   128
  0
VERTEX
  5
133
  8
0
  6
CONTINUOUS
 62
     7
 10
-4.441703015
 20
6.7953532127
 30
0.0
  0
VERTEX
  5
134
  8
0
  6
CONTINUOUS
 62
     7
 10
-4.4365981628
 20
6.7735980855
 30
0.0
  0
VERTEX
  5
135
  8
0
  6
CONTINUOUS
 62
     7
 10
-4.4331363697
 20
6.7563859595
 30
0.0
  0
SEQEND
  5
19E
  8
0
  6
CONTINUOUS
 62
     7
  0
POLYLINE
  5
91
  8
0
  6
CONTINUOUS
 62
     7
 66
     1
 10
0.0
 20
0.0
 30
0.0
 70
   128
  0
VERTEX
  5
136
  8
0
  6
CONTINUOUS
 62
     7
 10
-4.4318623558
 20
6.7513777669
 30
0.0
  0
VERTEX
  5
137
  8
0
  6
CONTINUOUS
 62
     7
 10
-4.4299266548
 20
6.7449862043
 30
0.0
  0
VERTEX
  5
138
  8
0
  6
CONTINUOUS
 62
     7
 10
-4.428040314
 20
6.7400873677
 30
0.0
  0
SEQEND
  5
19F
  8
0
  6
CONTINUOUS
 62
     7
  0
POLYLINE
  5
93
  8
0
  6
CONTINUOUS
 62
     7
 66
     1
 10
0.0
 20
0.0
 30
0.0
 70
   128
  0
VERTEX
  5
139
  8
0
  6
CONTINUOUS
 62
     7
 10
-4.4272056153
 20
6.7393844635
 30
0.0
  0
VERTEX
  5
13A
  8
0
  6
CONTINUOUS
 62
     7
 10
-4.4266031083
 20
6.7370489954
 30
0.0
  0
VERTEX
  5
13B
  8
0
  6
CONTINUOUS
 62
     7
 10
-4.4250672066
 20
6.7351999595
 30
0.0
  0
VERTEX
  5
13C
  8
0
  6
CONTINUOUS
 62
     7
 10
-4.422965603
 20
6.7340116832
 30
0.0
  0
VERTEX
  5
13D
  8
0
  6
CONTINUOUS
 62
     7
 10
-4.4205902138
 20
6.7335571035
 30
0.0
  0
VERTEX
  5
13E
  8
0
  6
CONTINUOUS
 62
     7
 10
-4.415783442
 20
6.73395601
 30
0.0
  0
VERTEX
  5
13F
  8
0
  6
CONTINUOUS
 62
     7
 10
-4.411126681
 20
6.7352549011
 30
0.0
  0
SEQEND
  5
1A0
  8
0
  6
CONTINUOUS
 62
     7
  0
POLYLINE
  5
99
  8
0
  6
CONTINUOUS
 62
     7
 66
     1
 10
0.0
 20
0.0
 30
0.0
 70
   128
  0
VERTEX
  5
140
  8
0
  6
CONTINUOUS
 62
     7
 10
-4.4286114237
 20
6.6852608378
 30
0.0
  0
VERTEX
  5
141
  8
0
  6
CONTINUOUS
 62
     7
 10
-4.4284939966
 20
6.6850705747
 30
0.0
  0
VERTEX
  5
142
  8
0
  6
CONTINUOUS
 62
     7
 10
-4.4284432229
 20
6.685010433
 30
0.0
  0
VERTEX
  5
143
  8
0
  6
CONTINUOUS
 62
     7
 10
-4.4284318942
 20
6.6850014115
 30
0.0
  0
VERTEX
  5
144
  8
0
  6
CONTINUOUS
 62
     7
 10
-4.4284212105
 20
6.6849952329
 30
0.0
  0
VERTEX
  5
145
  8
0
  6
CONTINUOUS
 62
     7
 10
-4.4284112216
 20
6.6849921159
 30
0.0
  0
VERTEX
  5
146
  8
0
  6
CONTINUOUS
 62
     7
 10
-4.428401977
 20
6.6849922792
 30
0.0
  0
VERTEX
  5
147
  8
0
  6
CONTINUOUS
 62
     7
 10
-4.4283925681
 20
6.6849966265
 30
0.0
  0
VERTEX
  5
148
  8
0
  6
CONTINUOUS
 62
     7
 10
-4.428384209
 20
6.6850055653
 30
0.0
  0
VERTEX
  5
149
  8
0
  6
CONTINUOUS
 62
     7
 10
-4.4283731112
 20
6.6850279789
 30
0.0
  0
VERTEX
  5
14A
  8
0
  6
CONTINUOUS
 62
     7
 10
-4.428356071
 20
6.685106983
 30
0.0
  0
VERTEX
  5
14B
  8
0
  6
CONTINUOUS
 62
     7
 10
-4.4283472801
 20
6.68530175
 30
0.0
  0
VERTEX
  5
14C
  8
0
  6
CONTINUOUS
 62
     7
 10
-4.4287871498
 20
6.6871498929
 30
0.0
  0
SEQEND
  5
1A1
  8
0
  6
CONTINUOUS
 62
     7
  0
POLYLINE
  5
9A
  8
0
  6
CONTINUOUS
 62
     7
 66
     1
 10
0.0
 20
0.0
 30
0.0
 70
   128
  0
VERTEX
  5
14D
  8
0
  6
CONTINUOUS
 62
     7
 10
-4.4287871498
 20
6.6871498929
 30
0.0
  0
VERTEX
  5
14E
  8
0
  6
CONTINUOUS
 62
     7
 10
-4.4297275068
 20
6.690943373
 30
0.0
  0
VERTEX
  5
14F
  8
0
  6
CONTINUOUS
 62
     7
 10
-4.4305004788
 20
6.6939153461
 30
0.0
  0
SEQEND
  5
1A2
  8
0
  6
CONTINUOUS
 62
     7
  0
POLYLINE
  5
A1
  8
0
  6
CONTINUOUS
 62
     7
 66
     1
 10
0.0
 20
0.0
 30
0.0
 70
   128
  0
VERTEX
  5
150
  8
0
  6
CONTINUOUS
 62
     7
 10
-4.3985622679
 20
6.7626242346
 30
0.0
  0
VERTEX
  5
151
  8
0
  6
CONTINUOUS
 62
     7
 10
-4.4008743128
 20
6.7740155011
 30
0.0
  0
VERTEX
  5
152
  8
0
  6
CONTINUOUS
 62
     7
 10
-4.4022085836
 20
6.7830523887
 30
0.0
  0
SEQEND
  5
1A3
  8
0
  6
CONTINUOUS
 62
     7
  0
POLYLINE
  5
A3
  8
0
  6
CONTINUOUS
 62
     7
 66
     1
 10
0.0
 20
0.0
 30
0.0
 70
   128
  0
VERTEX
  5
153
  8
0
  6
CONTINUOUS
 62
     7
 10
-4.4039658442
 20
6.7926294588
 30
0.0
  0
VERTEX
  5
154
  8
0
  6
CONTINUOUS
 62
     7
 10
-4.405320675
 20
6.8010896945
 30
0.0
  0
VERTEX
  5
155
  8
0
  6
CONTINUOUS
 62
     7
 10
-4.4068213926
 20
6.8076540367
 30
0.0
  0
SEQEND
  5
1A4
  8
0
  6
CONTINUOUS
 62
     7
  0
POLYLINE
  5
A4
  8
0
  6
CONTINUOUS
 62
     7
 66
     1
 10
0.0
 20
0.0
 30
0.0
 70
   128
  0
VERTEX
  5
156
  8
0
  6
CONTINUOUS
 62
     7
 10
-4.4068213926
 20
6.8076540367
 30
0.0
  0
VERTEX
  5
157
  8
0
  6
CONTINUOUS
 62
     7
 10
-4.4072547327
 20
6.8092985157
 30
0.0
  0
VERTEX
  5
158
  8
0
  6
CONTINUOUS
 62
     7
 10
-4.4075682283
 20
6.8105974482
 30
0.0
  0
SEQEND
  5
1A5
  8
0
  6
CONTINUOUS
 62
     7
  0
POLYLINE
  5
A5
  8
0
  6
CONTINUOUS
 62
     7
 66
     1
 10
0.0
 20
0.0
 30
0.0
 70
   128
  0
VERTEX
  5
159
  8
0
  6
CONTINUOUS
 62
     7
 10
-4.4450418101
 20
6.7464574373
 30
0.0
  0
VERTEX
  5
15A
  8
0
  6
CONTINUOUS
 62
     7
 10
-4.445508692
 20
6.7482781003
 30
0.0
  0
VERTEX
  5
15B
  8
0
  6
CONTINUOUS
 62
     7
 10
-4.4458765088
 20
6.7497083693
 30
0.0
  0
SEQEND
  5
1A6
  8
0
  6
CONTINUOUS
 62
     7
  0
POLYLINE
  5
A6
  8
0
  6
CONTINUOUS
 62
     7
 66
     1
 10
0.0
 20
0.0
 30
0.0
 70
   128
  0
VERTEX
  5
15C
  8
0
  6
CONTINUOUS
 62
     7
 10
-4.4458765088
 20
6.7497083693
 30
0.0
  0
VERTEX
  5
15D
  8
0
  6
CONTINUOUS
 62
     7
 10
-4.4462493897
 20
6.7515659593
 30
0.0
  0
VERTEX
  5
15E
  8
0
  6
CONTINUOUS
 62
     7
 10
-4.446403687
 20
6.7530471644
 30
0.0
  0
SEQEND
  5
1A7
  8
0
  6
CONTINUOUS
 62
     7
  0
POLYLINE
  5
A8
  8
0
  6
CONTINUOUS
 62
     7
 66
     1
 10
0.0
 20
0.0
 30
0.0
 70
   128
  0
VERTEX
  5
15F
  8
0
  6
CONTINUOUS
 62
     7
 10
-4.448029153
 20
6.7595490286
 30
0.0
  0
VERTEX
  5
160
  8
0
  6
CONTINUOUS
 62
     7
 10
-4.4482021229
 20
6.7600276841
 30
0.0
  0
VERTEX
  5
161
  8
0
  6
CONTINUOUS
 62
     7
 10
-4.4483663222
 20
6.7602261781
 30
0.0
  0
VERTEX
  5
162
  8
0
  6
CONTINUOUS
 62
     7
 10
-4.4485923665
 20
6.7603516445
 30
0.0
  0
VERTEX
  5
163
  8
0
  6
CONTINUOUS
 62
     7
 10
-4.4487670042
 20
6.7603756639
 30
0.0
  0
VERTEX
  5
164
  8
0
  6
CONTINUOUS
 62
     7
 10
-4.4489341528
 20
6.760346673
 30
0.0
  0
VERTEX
  5
165
  8
0
  6
CONTINUOUS
 62
     7
 10
-4.4490711437
 20
6.7602638015
 30
0.0
  0
VERTEX
  5
166
  8
0
  6
CONTINUOUS
 62
     7
 10
-4.4493470985
 20
6.7598126176
 30
0.0
  0
SEQEND
  5
1A8
  8
0
  6
CONTINUOUS
 62
     7
  0
POLYLINE
  5
A9
  8
0
  6
CONTINUOUS
 62
     7
 66
     1
 10
0.0
 20
0.0
 30
0.0
 70
   128
  0
VERTEX
  5
167
  8
0
  6
CONTINUOUS
 62
     7
 10
-4.4493470985
 20
6.7598126176
 30
0.0
  0
VERTEX
  5
168
  8
0
  6
CONTINUOUS
 62
     7
 10
-4.4535850713
 20
6.757382494
 30
0.0
  0
VERTEX
  5
169
  8
0
  6
CONTINUOUS
 62
     7
 10
-4.457166908
 20
6.7559466444
 30
0.0
  0
SEQEND
  5
1A9
  8
0
  6
CONTINUOUS
 62
     7
  0
POLYLINE
  5
AA
  8
0
  6
CONTINUOUS
 62
     7
 66
     1
 10
0.0
 20
0.0
 30
0.0
 70
   128
  0
VERTEX
  5
16A
  8
0
  6
CONTINUOUS
 62
     7
 10
-4.457166908
 20
6.7559466444
 30
0.0
  0
VERTEX
  5
16B
  8
0
  6
CONTINUOUS
 62
     7
 10
-4.458616056
 20
6.7553972658
 30
0.0
  0
VERTEX
  5
16C
  8
0
  6
CONTINUOUS
 62
     7
 10
-4.4597588674
 20
6.7549801511
 30
0.0
  0
SEQEND
  5
1AA
  8
0
  6
CONTINUOUS
 62
     7
  0
POLYLINE
  5
AB
  8
0
  6
CONTINUOUS
 62
     7
 66
     1
 10
0.0
 20
0.0
 30
0.0
 70
   128
  0
VERTEX
  5
16D
  8
0
  6
CONTINUOUS
 62
     7
 10
-4.4597588674
 20
6.7549801511
 30
0.0
  0
VERTEX
  5
16E
  8
0
  6
CONTINUOUS
 62
     7
 10
-4.4658211556
 20
6.754741758
 30
0.0
  0
VERTEX
  5
16F
  8
0
  6
CONTINUOUS
 62
     7
 10
-4.4717480598
 20
6.7560650197
 30
0.0
  0
VERTEX
  5
170
  8
0
  6
CONTINUOUS
 62
     7
 10
-4.4756697509
 20
6.7587432284
 30
0.0
  0
VERTEX
  5
171
  8
0
  6
CONTINUOUS
 62
     7
 10
-4.4778147198
 20
6.7629756867
 30
0.0
  0
SEQEND
  5
1AB
  8
0
  6
CONTINUOUS
 62
     7
  0
POLYLINE
  5
AD
  8
0
  6
CONTINUOUS
 62
     7
 66
     1
 10
0.0
 20
0.0
 30
0.0
 70
   128
  0
VERTEX
  5
172
  8
0
  6
CONTINUOUS
 62
     7
 10
-4.4781222404
 20
6.7641618376
 30
0.0
  0
VERTEX
  5
173
  8
0
  6
CONTINUOUS
 62
     7
 10
-4.4785690124
 20
6.767839457
 30
0.0
  0
VERTEX
  5
174
  8
0
  6
CONTINUOUS
 62
     7
 10
-4.4776811661
 20
6.7714200877
 30
0.0
  0
VERTEX
  5
175
  8
0
  6
CONTINUOUS
 62
     7
 10
-4.4727661711
 20
6.7768948719
 30
0.0
  0
VERTEX
  5
176
  8
0
  6
CONTINUOUS
 62
     7
 10
-4.4662301552
 20
6.7803956779
 30
0.0
  0
VERTEX
  5
177
  8
0
  6
CONTINUOUS
 62
     7
 10
-4.4594074153
 20
6.7833159778
 30
0.0
  0
SEQEND
  5
1AC
  8
0
  6
CONTINUOUS
 62
     7
  0
POLYLINE
  5
AE
  8
0
  6
CONTINUOUS
 62
     7
 66
     1
 10
0.0
 20
0.0
 30
0.0
 70
   128
  0
VERTEX
  5
178
  8
0
  6
CONTINUOUS
 62
     7
 10
-4.4594074153
 20
6.7833159778
 30
0.0
  0
VERTEX
  5
179
  8
0
  6
CONTINUOUS
 62
     7
 10
-4.4577351794
 20
6.7838086543
 30
0.0
  0
VERTEX
  5
17A
  8
0
  6
CONTINUOUS
 62
     7
 10
-4.4565079353
 20
6.7844142657
 30
0.0
  0
SEQEND
  5
1AD
  8
0
  6
CONTINUOUS
 62
     7
  0
POLYLINE
  5
B3
  8
0
  6
CONTINUOUS
 62
     7
 66
     1
 10
0.0
 20
0.0
 30
0.0
 70
   128
  0
VERTEX
  5
17B
  8
0
  6
CONTINUOUS
 62
     7
 10
-4.4680179921
 20
6.808532667
 30
0.0
  0
VERTEX
  5
17C
  8
0
  6
CONTINUOUS
 62
     7
 10
-4.4695971792
 20
6.8078857583
 30
0.0
  0
VERTEX
  5
17D
  8
0
  6
CONTINUOUS
 62
     7
 10
-4.4708735405
 20
6.8074783107
 30
0.0
  0
SEQEND
  5
1AE
  8
0
  6
CONTINUOUS
 62
     7
  0
POLYLINE
  5
B4
  8
0
  6
CONTINUOUS
 62
     7
 66
     1
 10
0.0
 20
0.0
 30
0.0
 70
   128
  0
VERTEX
  5
17E
  8
0
  6
CONTINUOUS
 62
     7
 10
-4.4708735405
 20
6.8074783107
 30
0.0
  0
VERTEX
  5
17F
  8
0
  6
CONTINUOUS
 62
     7
 10
-4.4817035259
 20
6.802610638
 30
0.0
  0
VERTEX
  5
180
  8
0
  6
CONTINUOUS
 62
     7
 10
-4.4922797315
 20
6.7972138587
 30
0.0
  0
VERTEX
  5
181
  8
0
  6
CONTINUOUS
 62
     7
 10
-4.5019951981
 20
6.7904010245
 30
0.0
  0
VERTEX
  5
182
  8
0
  6
CONTINUOUS
 62
     7
 10
-4.5082365488
 20
6.7840616458
 30
0.0
  0
VERTEX
  5
183
  8
0
  6
CONTINUOUS
 62
     7
 10
-4.5129679133
 20
6.7765334269
 30
0.0
  0
VERTEX
  5
184
  8
0
  6
CONTINUOUS
 62
     7
 10
-4.5151374878
 20
6.7679413125
 30
0.0
  0
VERTEX
  5
185
  8
0
  6
CONTINUOUS
 62
     7
 10
-4.5141900136
 20
6.7591097134
 30
0.0
  0
SEQEND
  5
1AF
  8
0
  6
CONTINUOUS
 62
     7
  0
POLYLINE
  5
B5
  8
0
  6
CONTINUOUS
 62
     7
 66
     1
 10
0.0
 20
0.0
 30
0.0
 70
   128
  0
VERTEX
  5
186
  8
0
  6
CONTINUOUS
 62
     7
 10
-4.5141900136
 20
6.7591097134
 30
0.0
  0
VERTEX
  5
187
  8
0
  6
CONTINUOUS
 62
     7
 10
-4.5134892532
 20
6.7569978987
 30
0.0
  0
VERTEX
  5
188
  8
0
  6
CONTINUOUS
 62
     7
 10
-4.5129599312
 20
6.7553316032
 30
0.0
  0
SEQEND
  5
1B0
  8
0
  6
CONTINUOUS
 62
     7
  0
POLYLINE
  5
B7
  8
0
  6
CONTINUOUS
 62
     7
 66
     1
 10
0.0
 20
0.0
 30
0.0
 70
   128
  0
VERTEX
  5
189
  8
0
  6
CONTINUOUS
 62
     7
 10
-4.4601103195
 20
6.7266003928
 30
0.0
  0
VERTEX
  5
18A
  8
0
  6
CONTINUOUS
 62
     7
 10
-4.4568660772
 20
6.7269224757
 30
0.0
  0
VERTEX
  5
18B
  8
0
  6
CONTINUOUS
 62
     7
 10
-4.4543552911
 20
6.7274350916
 30
0.0
  0
SEQEND
  5
1B1
  8
0
  6
CONTINUOUS
 62
     7
  0
POLYLINE
  5
B8
  8
0
  6
CONTINUOUS
 62
     7
 66
     1
 10
0.0
 20
0.0
 30
0.0
 70
   128
  0
VERTEX
  5
18C
  8
0
  6
CONTINUOUS
 62
     7
 10
-4.4543552911
 20
6.7274350916
 30
0.0
  0
VERTEX
  5
18D
  8
0
  6
CONTINUOUS
 62
     7
 10
-4.446695568
 20
6.7308092613
 30
0.0
  0
VERTEX
  5
18E
  8
0
  6
CONTINUOUS
 62
     7
 10
-4.4419226726
 20
6.7353427642
 30
0.0
  0
SEQEND
  5
1B2
  8
0
  6
CONTINUOUS
 62
     7
  0
POLYLINE
  5
B9
  8
0
  6
CONTINUOUS
 62
     7
 66
     1
 10
0.0
 20
0.0
 30
0.0
 70
   128
  0
VERTEX
  5
18F
  8
0
  6
CONTINUOUS
 62
     7
 10
-4.4419226726
 20
6.7353427642
 30
0.0
  0
VERTEX
  5
190
  8
0
  6
CONTINUOUS
 62
     7
 10
-4.441636658
 20
6.7358822596
 30
0.0
  0
VERTEX
  5
191
  8
0
  6
CONTINUOUS
 62
     7
 10
-4.4415712204
 20
6.736353189
 30
0.0
  0
SEQEND
  5
1B3
  8
0
  6
CONTINUOUS
 62
     7
  0
POLYLINE
  5
BA
  8
0
  6
CONTINUOUS
 62
     7
 66
     1
 10
0.0
 20
0.0
 30
0.0
 70
   128
  0
VERTEX
  5
192
  8
0
  6
CONTINUOUS
 62
     7
 10
-4.4415712204
 20
6.736353189
 30
0.0
  0
VERTEX
  5
193
  8
0
  6
CONTINUOUS
 62
     7
 10
-4.4437137546
 20
6.7419434147
 30
0.0
  0
VERTEX
  5
194
  8
0
  6
CONTINUOUS
 62
     7
 10
-4.4450418101
 20
6.7464574373
 30
0.0
  0
SEQEND
  5
1B4
  8
0
  6
CONTINUOUS
 62
     7
  0
LINE
  5
D4
  8
0
  6
CONTINUOUS
 62
     7
 10
-4.0878611441
 20
6.6417027744
 30
0.0
 11
-3.9357952277
 21
6.6007637139
 31
0.0
  0
LINE
  5
D5
  8
0
  6
CONTINUOUS
 62
     7
 10
-3.9357952277
 20
6.6007637139
 30
0.0
 11
-3.9529187279
 21
6.5569860795
 31
0.0
  0
LINE
  5
D6
  8
0
  6
CONTINUOUS
 62
     7
 10
-4.0629138964
 20
6.4819001482
 30
0.0
 11
-4.6627534507
 21
6.4819001482
 31
0.0
  0
LINE
  5
D7
  8
0
  6
CONTINUOUS
 62
     7
 10
-4.4719718284
 20
6.8565058807
 30
0.0
 11
-4.4764089113
 21
6.8553636613
 31
0.0
  0
LINE
  5
D8
  8
0
  6
CONTINUOUS
 62
     7
 10
-4.4764089113
 20
6.8553636613
 30
0.0
 11
-4.4766725004
 21
6.8553197298
 31
0.0
  0
LINE
  5
D9
  8
0
  6
CONTINUOUS
 62
     7
 10
-4.4766725004
 20
6.8553197298
 30
0.0
 11
-4.4772875416
 21
6.8551440037
 31
0.0
  0
LINE
  5
DA
  8
0
  6
CONTINUOUS
 62
     7
 10
-4.4714885817
 20
6.8286533006
 30
0.0
 11
-4.4703024308
 21
6.8289608212
 31
0.0
  0
LINE
  5
DB
  8
0
  6
CONTINUOUS
 62
     7
 10
-4.4482048791
 20
6.8197791347
 30
0.0
 11
-4.44794129
 21
6.8185929838
 31
0.0
  0
LINE
  5
DC
  8
0
  6
CONTINUOUS
 62
     7
 10
-4.4331363697
 20
6.7563859595
 30
0.0
 11
-4.4318623558
 21
6.7513777669
 31
0.0
  0
LINE
  5
DD
  8
0
  6
CONTINUOUS
 62
     7
 10
-4.411126681
 20
6.7352549011
 30
0.0
 11
-4.4102480507
 21
6.7354745587
 31
0.0
  0
LINE
  5
DE
  8
0
  6
CONTINUOUS
 62
     7
 10
-4.48014309
 20
6.8801849669
 30
0.0
 11
-4.4786494185
 21
6.8805803505
 31
0.0
  0
LINE
  5
DF
  8
0
  6
CONTINUOUS
 62
     7
 10
-4.4022085836
 20
6.7830523887
 30
0.0
 11
-4.4039658442
 21
6.7926294588
 31
0.0
  0
LINE
  5
E0
  8
0
  6
CONTINUOUS
 62
     7
 10
-4.446403687
 20
6.7530471644
 30
0.0
 11
-4.448029153
 21
6.7595490286
 31
0.0
  0
LINE
  5
E1
  8
0
  6
CONTINUOUS
 62
     7
 10
-4.4778147198
 20
6.7629756867
 30
0.0
 11
-4.4781222404
 21
6.7641618376
 31
0.0
  0
LINE
  5
E2
  8
0
  6
CONTINUOUS
 62
     7
 10
-4.4565079353
 20
6.7844142657
 30
0.0
 11
-4.4561564832
 21
6.7854246905
 31
0.0
  0
LINE
  5
E3
  8
0
  6
CONTINUOUS
 62
     7
 10
-4.4561564832
 20
6.7854246905
 30
0.0
 11
-4.4623947582
 21
6.8099384755
 31
0.0
  0
LINE
  5
E4
  8
0
  6
CONTINUOUS
 62
     7
 10
-4.4634930461
 20
6.8105974482
 30
0.0
 11
-4.4680179921
 21
6.808532667
 31
0.0
  0
LINE
  5
E5
  8
0
  6
CONTINUOUS
 62
     7
 10
-4.2382851457
 20
6.7381101037
 30
0.0
 11
-4.1990926751
 21
6.8040589724
 31
0.0
  0
LINE
  5
E6
  8
0
  6
CONTINUOUS
 62
     7
 10
-4.1990926751
 20
6.8040589724
 30
0.0
 11
-4.1801730446
 21
6.7297128184
 31
0.0
  0
LINE
  5
E7
  8
0
  6
CONTINUOUS
 62
     7
 10
-4.1414085538
 20
6.7395776171
 30
0.0
 11
-4.1603281844
 21
6.8139237711
 31
0.0
  0
LINE
  5
E8
  8
0
  6
CONTINUOUS
 62
     7
 10
-4.1603281844
 20
6.8139237711
 30
0.0
 11
-4.0943793156
 21
6.7747313006
 31
0.0
  0
LINE
  5
E9
  8
0
  6
CONTINUOUS
 62
     7
 10
-4.0739441474
 20
6.809117401
 30
0.0
 11
-4.1398930161
 21
6.8483098715
 31
0.0
  0
LINE
  5
EA
  8
0
  6
CONTINUOUS
 62
     7
 10
-4.1398930161
 20
6.8483098715
 30
0.0
 11
-4.0655468621
 21
6.8672295021
 31
0.0
  0
LINE
  5
EB
  8
0
  6
CONTINUOUS
 62
     7
 10
-4.0754116609
 20
6.9059939929
 30
0.0
 11
-4.1497578149
 21
6.8870743623
 31
0.0
  0
LINE
  5
EC
  8
0
  6
CONTINUOUS
 62
     7
 10
-4.1497578149
 20
6.8870743623
 30
0.0
 11
-4.1105653443
 21
6.9530232311
 31
0.0
  0
LINE
  5
ED
  8
0
  6
CONTINUOUS
 62
     7
 10
-4.1449514447
 20
6.9734583993
 30
0.0
 11
-4.1841439152
 21
6.9075095305
 31
0.0
  0
LINE
  5
EE
  8
0
  6
CONTINUOUS
 62
     7
 10
-4.1841439152
 20
6.9075095305
 30
0.0
 11
-4.2030635458
 21
6.9818556845
 31
0.0
  0
LINE
  5
EF
  8
0
  6
CONTINUOUS
 62
     7
 10
-4.2418280366
 20
6.9719908858
 30
0.0
 11
-4.222908406
 21
6.8976447318
 31
0.0
  0
LINE
  5
F0
  8
0
  6
CONTINUOUS
 62
     7
 10
-4.222908406
 20
6.8976447318
 30
0.0
 11
-4.2888572748
 21
6.9368372024
 31
0.0
  0
LINE
  5
F1
  8
0
  6
CONTINUOUS
 62
     7
 10
-4.309292443
 20
6.902451102
 30
0.0
 11
-4.2433435743
 21
6.8632586314
 31
0.0
  0
LINE
  5
F2
  8
0
  6
CONTINUOUS
 62
     7
 10
-4.2433435743
 20
6.8632586314
 30
0.0
 11
-4.3176897283
 21
6.8443390008
 31
0.0
  0
LINE
  5
F3
  8
0
  6
CONTINUOUS
 62
     7
 10
-4.3078249295
 20
6.80557451
 30
0.0
 11
-4.2334787755
 21
6.8244941406
 31
0.0
  0
LINE
  5
F4
  8
0
  6
CONTINUOUS
 62
     7
 10
-4.2334787755
 20
6.8244941406
 30
0.0
 11
-4.2726712461
 21
6.7585452719
 31
0.0
  0
ARC
  5
F5
  8
0
  6
CONTINUOUS
 62
     7
 10
-4.0629138964
 20
6.6000103844
 30
0.0
 40
0.1181102362204705
 50
270.0
 51
338.637185226
  0
ARC
  5
F6
  8
0
  6
CONTINUOUS
 62
     7
 10
-4.6627534507
 20
6.6590655025
 30
0.0
 40
0.1771653543307067
 50
136.3487240582
 51
270.0
  0
ARC
  5
F7
  8
0
  6
CONTINUOUS
 62
     7
 10
-3.9363504038
 20
5.966080561
 30
0.0
 40
1.181102362204724
 50
40.3664319188
 51
136.3487240582
  0
ARC
  5
F8
  8
0
  6
CONTINUOUS
 62
     7
 10
-3.1414360665
 20
6.6418030435
 30
0.0
 40
0.137795275590552
 50
208.1814154271
 51
40.3664319188
  0
ARC
  5
F9
  8
0
  6
CONTINUOUS
 62
     7
 10
-3.7737255953
 20
6.3030363822
 30
0.0
 40
0.579528151456743
 50
28.1814154271
 51
89.9668958479
  0
ARC
  5
FA
  8
0
  6
CONTINUOUS
 62
     7
 10
-3.7735788079
 20
6.5570919432
 30
0.0
 40
0.3254725481419973
 50
89.9668958479
 51
164.932131242
  0
ARC
  5
FB
  8
0
  6
CONTINUOUS
 62
     7
 10
-4.465732138
 20
6.803340369
 30
0.0
 40
0.053076773855183
 50
102.5746312414
 51
172.5720876849
  0
ARC
  5
FC
  8
0
  6
CONTINUOUS
 62
     7
 10
-4.4866448881
 20
6.8098188303
 30
0.0
 40
0.0010235146277426
 50
272.4563166448
 51
9.1963674143
  0
ARC
  5
FD
  8
0
  6
CONTINUOUS
 62
     7
 10
-4.4687223426
 20
6.8118632031
 30
0.0
 40
0.0170164465243034
 50
99.3556744647
 51
186.3457611287
  0
ARC
  5
FE
  8
0
  6
CONTINUOUS
 62
     7
 10
-4.4633238388
 20
6.8146256674
 30
0.0
 40
0.0159731389764242
 50
18.8222536553
 51
108.2479786799
  0
ARC
  5
FF
  8
0
  6
CONTINUOUS
 62
     7
 10
-4.4273271752
 20
6.7400871656
 30
0.0
 40
0.0007131388654617
 50
179.9837592882
 51
279.8144256192
  0
ARC
  5
100
  8
0
  6
CONTINUOUS
 62
     7
 10
-4.4449747684
 20
6.8146180489
 30
0.0
 40
0.0864270614538572
 50
293.6909883019
 51
13.8063029919
  0
ARC
  5
101
  8
0
  6
CONTINUOUS
 62
     7
 10
-4.4606085684
 20
6.7941777834
 30
0.0
 40
0.1077000802769265
 50
22.4137727181
 51
102.5729534649
  0
ARC
  5
102
  8
0
  6
CONTINUOUS
 62
     7
 10
-4.4494482929
 20
6.7851942218
 30
0.0
 40
0.119233020029073
 50
106.8715768859
 51
189.6456622714
  0
ARC
  5
103
  8
0
  6
CONTINUOUS
 62
     7
 10
-4.4520021285
 20
6.8045102222
 30
0.0
 40
0.1215217706380285
 50
198.8656221031
 51
281.0976430416
  0
ARC
  5
104
  8
0
  6
CONTINUOUS
 62
     7
 10
-4.3743440119
 20
6.7108107873
 30
0.0
 40
0.0586430278501674
 50
185.7002835135
 51
196.7446326254
  0
ARC
  5
105
  8
0
  6
CONTINUOUS
 62
     7
 10
-4.4546100977
 20
6.7961517192
 30
0.0
 40
0.0937622195312356
 50
196.6122353204
 51
283.5155152028
  0
ARC
  5
106
  8
0
  6
CONTINUOUS
 62
     7
 10
-4.4537237704
 20
6.7907752691
 30
0.0
 40
0.093231295793693
 50
106.4616756446
 51
193.288429899
  0
ARC
  5
107
  8
0
  6
CONTINUOUS
 62
     7
 10
-4.4573598764
 20
6.8020284179
 30
0.0
 40
0.0813858139954788
 50
18.7358923497
 51
105.1643019114
  0
ARC
  5
108
  8
0
  6
CONTINUOUS
 62
     7
 10
-4.4378551624
 20
6.8089005961
 30
0.0
 40
0.0607077688584623
 50
310.3343245063
 51
18.5065686975
  0
ARC
  5
109
  8
0
  6
CONTINUOUS
 62
     7
 10
-4.463224249
 20
6.8098007172
 30
0.0
 40
0.000840852082651
 50
9.4293781974
 51
108.6431087384
  0
ARC
  5
10A
  8
0
  6
CONTINUOUS
 62
     7
 10
-4.4678667814
 20
6.7753054747
 30
0.0
 40
0.0493188372348736
 50
203.8907999169
 51
279.0485765851
  0
ARC
  5
10B
  8
0
  6
CONTINUOUS
 62
     7
 10
-4.1607907992
 20
6.7346452178
 30
0.0
 40
0.0199999999999989
 50
194.2775890477
 51
14.2775890477
  0
ARC
  5
10C
  8
0
  6
CONTINUOUS
 62
     7
 10
-4.0841617315
 20
6.7919243508
 30
0.0
 40
0.0199999999999999
 50
239.2775890477
 51
59.2775890477
  0
ARC
  5
10D
  8
0
  6
CONTINUOUS
 62
     7
 10
-4.0704792615
 20
6.8866117475
 30
0.0
 40
0.0200000000000022
 50
284.2775890477
 51
104.2775890477
  0
ARC
  5
10E
  8
0
  6
CONTINUOUS
 62
     7
 10
-4.1277583945
 20
6.9632408152
 30
0.0
 40
0.020000000000003
 50
329.2775890477
 51
149.2775890477
  0
ARC
  5
10F
  8
0
  6
CONTINUOUS
 62
     7
 10
-4.2224457912
 20
6.9769232852
 30
0.0
 40
0.0200000000000013
 50
14.2775890477
 51
194.2775890477
  0
ARC
  5
110
  8
0
  6
CONTINUOUS
 62
     7
 10
-4.2990748589
 20
6.9196441522
 30
0.0
 40
0.019999999999999
 50
59.2775890477
 51
239.2775890477
  0
ARC
  5
111
  8
0
  6
CONTINUOUS
 62
     7
 10
-4.3127573289
 20
6.8249567554
 30
0.0
 40
0.0200000000000015
 50
104.2775890477
 51
284.2775890477
  0
ARC
  5
112
  8
0
  6
CONTINUOUS
 62
     7
 10
-4.2554781959
 20
6.7483276878
 30
0.0
 40
0.0200000000000025
 50
149.2775890477
 51
329.2775890477
  0
ARC
  5
113
  8
0
  6
CONTINUOUS
 62
     7
 10
-4.4608240022
 20
6.8045817816
 30
0.0
 40
0.053107307356047
 50
13.3405999085
 51
102.1171567362
  0
ENDSEC
  0
EOF
