  0
SECTION
  2
HEADER
  9
$ACADVER
  1
AC1009
  9
$DWGCODEPAGE
  3
ansi_1252
  9
$INSBASE
 10
0.0
 20
0.0
 30
0.0
  9
$EXTMIN
 10
2.5545633798
 20
8.3650741682
 30
0.0
  9
$EXTMAX
 10
5.8419649546
 20
10.0463261954
 30
0.0
  9
$LIMMIN
 10
0.0
 20
0.0
  9
$LIMMAX
 10
12.0
 20
9.0
  9
$ORTHOMODE
 70
     0
  9
$REGENMODE
 70
     1
  9
$FILLMODE
 70
     1
  9
$QTEXTMODE
 70
     0
  9
$MIRRTEXT
 70
     1
  9
$DRAGMODE
 70
     2
  9
$LTSCALE
 40
1.0
  9
$OSMODE
 70
    37
  9
$ATTMODE
 70
     1
  9
$TEXTSIZE
 40
0.1377952756
  9
$TRACEWID
 40
0.05
  9
$TEXTSTYLE
  7
STANDARD
  9
$CLAYER
  8
0
  9
$CELTYPE
  6
BYLAYER
  9
$CECOLOR
 62
   256
  9
$DIMSCALE
 40
1.0
  9
$DIMASZ
 40
0.13
  9
$DIMEXO
 40
0.0393700787
  9
$DIMDLI
 40
0.38
  9
$DIMRND
 40
0.0
  9
$DIMDLE
 40
0.0
  9
$DIMEXE
 40
0.0393700787
  9
$DIMTP
 40
0.0
  9
$DIMTM
 40
0.0
  9
$DIMTXT
 40
0.1377952756
  9
$DIMCEN
 40
0.09
  9
$DIMTSZ
 40
0.0
  9
$DIMTOL
 70
     0
  9
$DIMLIM
 70
     0
  9
$DIMTIH
 70
     1
  9
$DIMTOH
 70
     1
  9
$DIMSE1
 70
     0
  9
$DIMSE2
 70
     0
  9
$DIMTAD
 70
     1
  9
$DIMZIN
 70
     0
  9
$DIMBLK
  1

  9
$DIMASO
 70
     1
  9
$DIMSHO
 70
     1
  9
$DIMPOST
  1

  9
$DIMAPOST
  1

  9
$DIMALT
 70
     0
  9
$DIMALTD
 70
     2
  9
$DIMALTF
 40
25.4
  9
$DIMLFAC
 40
1.0
  9
$DIMTOFL
 70
     0
  9
$DIMTVP
 40
0.0
  9
$DIMTIX
 70
     0
  9
$DIMSOXD
 70
     0
  9
$DIMSAH
 70
     0
  9
$DIMBLK1
  1

  9
$DIMBLK2
  1

  9
$DIMSTYLE
  2
STANDARD
  9
$DIMCLRD
 70
     0
  9
$DIMCLRE
 70
     0
  9
$DIMCLRT
 70
     0
  9
$DIMTFAC
 40
1.0
  9
$DIMGAP
 40
0.06
  9
$LUNITS
 70
     2
  9
$LUPREC
 70
     2
  9
$SKETCHINC
 40
0.1
  9
$FILLETRAD
 40
0.5
  9
$AUNITS
 70
     0
  9
$AUPREC
 70
     2
  9
$MENU
  1
.
  9
$ELEVATION
 40
0.0
  9
$PELEVATION
 40
0.0
  9
$THICKNESS
 40
0.0
  9
$LIMCHECK
 70
     0
  9
$CHAMFERA
 40
0.0
  9
$CHAMFERB
 40
0.0
  9
$SKPOLY
 70
     0
  9
$TDCREATE
 40
2457836.736703842
  9
$TDUPDATE
 40
2457836.736731331
  9
$TDINDWG
 40
0.0000000116
  9
$TDUSRTIMER
 40
0.0000000116
  9
$USRTIMER
 70
     1
  9
$ANGBASE
 50
0.0
  9
$ANGDIR
 70
     0
  9
$PDMODE
 70
     0
  9
$PDSIZE
 40
-1.0
  9
$PLINEWID
 40
0.0
  9
$COORDS
 70
     1
  9
$SPLFRAME
 70
     0
  9
$SPLINETYPE
 70
     6
  9
$SPLINESEGS
 70
     8
  9
$ATTDIA
 70
     0
  9
$ATTREQ
 70
     1
  9
$HANDLING
 70
     1
  9
$HANDSEED
  5
1D0
  9
$SURFTAB1
 70
     6
  9
$SURFTAB2
 70
     6
  9
$SURFTYPE
 70
     6
  9
$SURFU
 70
     6
  9
$SURFV
 70
     6
  9
$UCSNAME
  2

  9
$UCSORG
 10
0.0
 20
0.0
 30
0.0
  9
$UCSXDIR
 10
1.0
 20
0.0
 30
0.0
  9
$UCSYDIR
 10
0.0
 20
1.0
 30
0.0
  9
$PUCSNAME
  2

  9
$PUCSORG
 10
0.0
 20
0.0
 30
0.0
  9
$PUCSXDIR
 10
1.0
 20
0.0
 30
0.0
  9
$PUCSYDIR
 10
0.0
 20
1.0
 30
0.0
  9
$USERI1
 70
     0
  9
$USERI2
 70
     0
  9
$USERI3
 70
     0
  9
$USERI4
 70
     0
  9
$USERI5
 70
     0
  9
$USERR1
 40
0.0
  9
$USERR2
 40
0.0
  9
$USERR3
 40
0.0
  9
$USERR4
 40
0.0
  9
$USERR5
 40
0.0
  9
$WORLDVIEW
 70
     1
  9
$SHADEDGE
 70
     3
  9
$SHADEDIF
 70
    70
  9
$TILEMODE
 70
     1
  9
$MAXACTVP
 70
    64
  9
$PLIMCHECK
 70
     0
  9
$PEXTMIN
 10
1.0000000000E+20
 20
1.0000000000E+20
 30
1.0000000000E+20
  9
$PEXTMAX
 10
-1.0000000000E+20
 20
-1.0000000000E+20
 30
-1.0000000000E+20
  9
$PLIMMIN
 10
0.0
 20
0.0
  9
$PLIMMAX
 10
12.0
 20
9.0
  9
$UNITMODE
 70
     0
  9
$VISRETAIN
 70
     1
  9
$PLINEGEN
 70
     0
  9
$PSLTSCALE
 70
     1
  0
ENDSEC
  0
SECTION
  2
TABLES
  0
TABLE
  2
VPORT
 70
     1
  0
VPORT
  2
*ACTIVE
 70
     0
 10
0.0
 20
0.0
 11
1.0
 21
1.0
 12
4.1982641672
 22
9.2057001818
 13
0.0
 23
0.0
 14
0.5
 24
0.5
 15
0.5
 25
0.5
 16
0.0
 26
0.0
 36
1.0
 17
0.0
 27
0.0
 37
0.0
 40
1.7148770677
 41
1.955329434
 42
50.0
 43
0.0
 44
0.0
 50
0.0
 51
0.0
 71
     0
 72
   100
 73
     1
 74
     3
 75
     0
 76
     0
 77
     0
 78
     0
  0
ENDTAB
  0
TABLE
  2
LTYPE
 70
     6
  0
LTYPE
  2
CONTINUOUS
 70
     0
  3
Solid line
 72
    65
 73
     0
 40
0.0
  0
LTYPE
  2
HIDDEN
 70
     0
  3
Hidden __ __ __ __ __ __ __ __ __ __ __ __ __ __
 72
    65
 73
     2
 40
0.075
 49
0.05
 49
-0.025
  0
LTYPE
  2
PHANTOM
 70
     0
  3
Phantom ______  __  __  ______  __  __  ______
 72
    65
 73
     6
 40
0.5
 49
0.25
 49
-0.05
 49
0.05
 49
-0.05
 49
0.05
 49
-0.05
  0
LTYPE
  2
CENTER
 70
     0
  3
Center ____ _ ____ _ ____ _ ____ _ ____ _ ____
 72
    65
 73
     4
 40
0.4
 49
0.25
 49
-0.05
 49
0.05
 49
-0.05
  0
LTYPE
  2
CENTERX2
 70
     0
  3
Center (2x) ________  __  ________  __  _____
 72
    65
 73
     4
 40
0.8
 49
0.5
 49
-0.1
 49
0.1
 49
-0.1
  0
LTYPE
  2
DOT2
 70
     0
  3
Dot (.5x) ........................................
 72
    65
 73
     2
 40
0.025
 49
0.0
 49
-0.025
  0
ENDTAB
  0
TABLE
  2
LAYER
 70
     1
  0
LAYER
  2
0
 70
     0
 62
     7
  6
CONTINUOUS
  0
ENDTAB
  0
TABLE
  2
STYLE
 70
     1
  0
STYLE
  2
STANDARD
 70
     0
 40
0.0
 41
1.0
 50
0.0
 71
     0
 42
0.1377952756
  3
txt
  4

  0
ENDTAB
  0
TABLE
  2
VIEW
 70
     0
  0
ENDTAB
  0
TABLE
  2
UCS
 70
     0
  0
ENDTAB
  0
TABLE
  2
APPID
 70
     1
  0
APPID
  2
ACAD
 70
     0
  0
ENDTAB
  0
TABLE
  2
DIMSTYLE
 70
     1
  0
DIMSTYLE
  2
STANDARD
 70
     0
  3

  4

  5

  6

  7

 40
1.0
 41
0.18
 42
0.0625
 43
0.38
 44
0.18
 45
0.0
 46
0.0
 47
0.0
 48
0.0
140
0.18
141
0.09
142
0.0
143
25.4
144
1.0
145
0.0
146
1.0
147
0.09
 71
     0
 72
     0
 73
     1
 74
     1
 75
     0
 76
     0
 77
     0
 78
     0
170
     0
171
     2
172
     0
173
     0
174
     0
175
     0
176
     0
177
     0
178
     0
  0
ENDTAB
  0
ENDSEC
  0
SECTION
  2
BLOCKS
  0
BLOCK
  8
0
  2
$MODEL_SPACE
 70
     0
 10
0.0
 20
0.0
 30
0.0
  3
$MODEL_SPACE
  1

  0
ENDBLK
  5
21
  8
0
  0
BLOCK
 67
     1
  8
0
  2
$PAPER_SPACE
 70
     0
 10
0.0
 20
0.0
 30
0.0
  3
$PAPER_SPACE
  1

  0
ENDBLK
  5
1D
 67
     1
  8
0
  0
ENDSEC
  0
SECTION
  2
ENTITIES
  0
POLYLINE
  5
A1
  8
0
  6
CONTINUOUS
 62
     7
 66
     1
 10
0.0
 20
0.0
 30
0.0
 70
   128
  0
VERTEX
  5
13F
  8
0
  6
CONTINUOUS
 62
     7
 10
4.877090665
 20
9.0929919949
 30
0.0
  0
VERTEX
  5
140
  8
0
  6
CONTINUOUS
 62
     7
 10
4.8778418479
 20
9.076406092
 30
0.0
  0
VERTEX
  5
141
  8
0
  6
CONTINUOUS
 62
     7
 10
4.8793970695
 20
9.0634480515
 30
0.0
  0
SEQEND
  5
1B4
  8
0
  6
CONTINUOUS
 62
     7
  0
POLYLINE
  5
A6
  8
0
  6
CONTINUOUS
 62
     7
 66
     1
 10
0.0
 20
0.0
 30
0.0
 70
   128
  0
VERTEX
  5
142
  8
0
  6
CONTINUOUS
 62
     7
 10
4.8299741159
 20
9.1872250931
 30
0.0
  0
VERTEX
  5
143
  8
0
  6
CONTINUOUS
 62
     7
 10
4.8342359631
 20
9.1874091212
 30
0.0
  0
VERTEX
  5
144
  8
0
  6
CONTINUOUS
 62
     7
 10
4.8375523021
 20
9.1878840658
 30
0.0
  0
SEQEND
  5
1B5
  8
0
  6
CONTINUOUS
 62
     7
  0
POLYLINE
  5
AB
  8
0
  6
CONTINUOUS
 62
     7
 66
     1
 10
0.0
 20
0.0
 30
0.0
 70
   128
  0
VERTEX
  5
145
  8
0
  6
CONTINUOUS
 62
     7
 10
4.8247023342
 20
9.2532321934
 30
0.0
  0
VERTEX
  5
146
  8
0
  6
CONTINUOUS
 62
     7
 10
4.8204665704
 20
9.2527366671
 30
0.0
  0
VERTEX
  5
147
  8
0
  6
CONTINUOUS
 62
     7
 10
4.817124148
 20
9.2524633919
 30
0.0
  0
SEQEND
  5
1B6
  8
0
  6
CONTINUOUS
 62
     7
  0
POLYLINE
  5
B3
  8
0
  6
CONTINUOUS
 62
     7
 66
     1
 10
0.0
 20
0.0
 30
0.0
 70
   128
  0
VERTEX
  5
148
  8
0
  6
CONTINUOUS
 62
     7
 10
4.9696763315
 20
9.1758028994
 30
0.0
  0
VERTEX
  5
149
  8
0
  6
CONTINUOUS
 62
     7
 10
4.9715573979
 20
9.1970475832
 30
0.0
  0
VERTEX
  5
14A
  8
0
  6
CONTINUOUS
 62
     7
 10
4.971982736
 20
9.2138036593
 30
0.0
  0
SEQEND
  5
1B7
  8
0
  6
CONTINUOUS
 62
     7
  0
POLYLINE
  5
BC
  8
0
  6
CONTINUOUS
 62
     7
 66
     1
 10
0.0
 20
0.0
 30
0.0
 70
   128
  0
VERTEX
  5
14B
  8
0
  6
CONTINUOUS
 62
     7
 10
4.9712139345
 20
9.2297288332
 30
0.0
  0
VERTEX
  5
14C
  8
0
  6
CONTINUOUS
 62
     7
 10
4.9716262076
 20
9.2339760003
 30
0.0
  0
VERTEX
  5
14D
  8
0
  6
CONTINUOUS
 62
     7
 10
4.971982736
 20
9.2373070194
 30
0.0
  0
SEQEND
  5
1B8
  8
0
  6
CONTINUOUS
 62
     7
  0
POLYLINE
  5
BE
  8
0
  6
CONTINUOUS
 62
     7
 66
     1
 10
0.0
 20
0.0
 30
0.0
 70
   128
  0
VERTEX
  5
14E
  8
0
  6
CONTINUOUS
 62
     7
 10
4.7730828048
 20
9.1522995392
 30
0.0
  0
VERTEX
  5
14F
  8
0
  6
CONTINUOUS
 62
     7
 10
4.7742753363
 20
9.161445249
 30
0.0
  0
VERTEX
  5
150
  8
0
  6
CONTINUOUS
 62
     7
 10
4.7785629224
 20
9.1695810995
 30
0.0
  0
VERTEX
  5
151
  8
0
  6
CONTINUOUS
 62
     7
 10
4.7855366737
 20
9.1756462681
 30
0.0
  0
VERTEX
  5
152
  8
0
  6
CONTINUOUS
 62
     7
 10
4.793809734
 20
9.1797686502
 30
0.0
  0
VERTEX
  5
153
  8
0
  6
CONTINUOUS
 62
     7
 10
4.8117196335
 20
9.1842762172
 30
0.0
  0
VERTEX
  5
154
  8
0
  6
CONTINUOUS
 62
     7
 10
4.8299741159
 20
9.1872250931
 30
0.0
  0
SEQEND
  5
1B9
  8
0
  6
CONTINUOUS
 62
     7
  0
POLYLINE
  5
BF
  8
0
  6
CONTINUOUS
 62
     7
 66
     1
 10
0.0
 20
0.0
 30
0.0
 70
   128
  0
VERTEX
  5
155
  8
0
  6
CONTINUOUS
 62
     7
 10
4.8444715156
 20
8.9313240221
 30
0.0
  0
VERTEX
  5
156
  8
0
  6
CONTINUOUS
 62
     7
 10
4.8446165393
 20
8.9307863101
 30
0.0
  0
VERTEX
  5
157
  8
0
  6
CONTINUOUS
 62
     7
 10
4.8446940249
 20
8.9306110875
 30
0.0
  0
VERTEX
  5
158
  8
0
  6
CONTINUOUS
 62
     7
 10
4.8447348815
 20
8.9305632703
 30
0.0
  0
VERTEX
  5
159
  8
0
  6
CONTINUOUS
 62
     7
 10
4.8447559471
 20
8.9305513585
 30
0.0
  0
VERTEX
  5
15A
  8
0
  6
CONTINUOUS
 62
     7
 10
4.844777479
 20
8.9305482249
 30
0.0
  0
VERTEX
  5
15B
  8
0
  6
CONTINUOUS
 62
     7
 10
4.8447938787
 20
8.9305519586
 30
0.0
  0
VERTEX
  5
15C
  8
0
  6
CONTINUOUS
 62
     7
 10
4.844810566
 20
8.9305611346
 30
0.0
  0
VERTEX
  5
15D
  8
0
  6
CONTINUOUS
 62
     7
 10
4.8448275043
 20
8.9305756144
 30
0.0
  0
VERTEX
  5
15E
  8
0
  6
CONTINUOUS
 62
     7
 10
4.8448679904
 20
8.9306281959
 30
0.0
  0
VERTEX
  5
15F
  8
0
  6
CONTINUOUS
 62
     7
 10
4.8449583552
 20
8.9308172083
 30
0.0
  0
VERTEX
  5
160
  8
0
  6
CONTINUOUS
 62
     7
 10
4.8450962767
 20
8.9312699782
 30
0.0
  0
VERTEX
  5
161
  8
0
  6
CONTINUOUS
 62
     7
 10
4.8451304884
 20
8.9359368311
 30
0.0
  0
SEQEND
  5
1BA
  8
0
  6
CONTINUOUS
 62
     7
  0
POLYLINE
  5
C2
  8
0
  6
CONTINUOUS
 62
     7
 66
     1
 10
0.0
 20
0.0
 30
0.0
 70
   128
  0
VERTEX
  5
162
  8
0
  6
CONTINUOUS
 62
     7
 10
4.8429339126
 20
9.122645767
 30
0.0
  0
VERTEX
  5
163
  8
0
  6
CONTINUOUS
 62
     7
 10
4.8426865681
 20
9.1240633333
 30
0.0
  0
VERTEX
  5
164
  8
0
  6
CONTINUOUS
 62
     7
 10
4.8424666206
 20
9.1246021611
 30
0.0
  0
VERTEX
  5
165
  8
0
  6
CONTINUOUS
 62
     7
 10
4.8420852639
 20
9.125006619
 30
0.0
  0
VERTEX
  5
166
  8
0
  6
CONTINUOUS
 62
     7
 10
4.8414561068
 20
9.125189734
 30
0.0
  0
VERTEX
  5
167
  8
0
  6
CONTINUOUS
 62
     7
 10
4.8408378491
 20
9.1250606911
 30
0.0
  0
VERTEX
  5
168
  8
0
  6
CONTINUOUS
 62
     7
 10
4.8398587066
 20
9.12418337
 30
0.0
  0
SEQEND
  5
1BB
  8
0
  6
CONTINUOUS
 62
     7
  0
POLYLINE
  5
C3
  8
0
  6
CONTINUOUS
 62
     7
 66
     1
 10
0.0
 20
0.0
 30
0.0
 70
   128
  0
VERTEX
  5
169
  8
0
  6
CONTINUOUS
 62
     7
 10
4.8429339126
 20
9.0603728455
 30
0.0
  0
VERTEX
  5
16A
  8
0
  6
CONTINUOUS
 62
     7
 10
4.8440433106
 20
9.0615183077
 30
0.0
  0
VERTEX
  5
16B
  8
0
  6
CONTINUOUS
 62
     7
 10
4.8444715156
 20
9.06267925
 30
0.0
  0
SEQEND
  5
1BC
  8
0
  6
CONTINUOUS
 62
     7
  0
POLYLINE
  5
C4
  8
0
  6
CONTINUOUS
 62
     7
 66
     1
 10
0.0
 20
0.0
 30
0.0
 70
   128
  0
VERTEX
  5
16C
  8
0
  6
CONTINUOUS
 62
     7
 10
4.971982736
 20
9.2213818455
 30
0.0
  0
VERTEX
  5
16D
  8
0
  6
CONTINUOUS
 62
     7
 10
4.9717329404
 20
9.2260731945
 30
0.0
  0
VERTEX
  5
16E
  8
0
  6
CONTINUOUS
 62
     7
 10
4.9712139345
 20
9.2297288332
 30
0.0
  0
SEQEND
  5
1BD
  8
0
  6
CONTINUOUS
 62
     7
  0
POLYLINE
  5
C5
  8
0
  6
CONTINUOUS
 62
     7
 66
     1
 10
0.0
 20
0.0
 30
0.0
 70
   128
  0
VERTEX
  5
16F
  8
0
  6
CONTINUOUS
 62
     7
 10
4.8421651111
 20
9.0976048039
 30
0.0
  0
VERTEX
  5
170
  8
0
  6
CONTINUOUS
 62
     7
 10
4.8424149067
 20
9.1022961529
 30
0.0
  0
VERTEX
  5
171
  8
0
  6
CONTINUOUS
 62
     7
 10
4.8429339126
 20
9.1059517916
 30
0.0
  0
SEQEND
  5
1BE
  8
0
  6
CONTINUOUS
 62
     7
  0
POLYLINE
  5
C6
  8
0
  6
CONTINUOUS
 62
     7
 66
     1
 10
0.0
 20
0.0
 30
0.0
 70
   128
  0
VERTEX
  5
172
  8
0
  6
CONTINUOUS
 62
     7
 10
4.6826937141
 20
9.1620743011
 30
0.0
  0
VERTEX
  5
173
  8
0
  6
CONTINUOUS
 62
     7
 10
4.6831092758
 20
9.156596961
 30
0.0
  0
VERTEX
  5
174
  8
0
  6
CONTINUOUS
 62
     7
 10
4.6834625156
 20
9.1522995392
 30
0.0
  0
SEQEND
  5
1BF
  8
0
  6
CONTINUOUS
 62
     7
  0
POLYLINE
  5
C8
  8
0
  6
CONTINUOUS
 62
     7
 66
     1
 10
0.0
 20
0.0
 30
0.0
 70
   128
  0
VERTEX
  5
175
  8
0
  6
CONTINUOUS
 62
     7
 10
4.793510959
 20
9.0504882547
 30
0.0
  0
VERTEX
  5
176
  8
0
  6
CONTINUOUS
 62
     7
 10
4.8015932478
 20
9.0493085929
 30
0.0
  0
VERTEX
  5
177
  8
0
  6
CONTINUOUS
 62
     7
 10
4.8080083587
 20
9.0490604805
 30
0.0
  0
SEQEND
  5
1C0
  8
0
  6
CONTINUOUS
 62
     7
  0
POLYLINE
  5
C9
  8
0
  6
CONTINUOUS
 62
     7
 66
     1
 10
0.0
 20
0.0
 30
0.0
 70
   128
  0
VERTEX
  5
178
  8
0
  6
CONTINUOUS
 62
     7
 10
4.9645632521
 20
9.1074649862
 30
0.0
  0
VERTEX
  5
179
  8
0
  6
CONTINUOUS
 62
     7
 10
4.9660732078
 20
9.1321812143
 30
0.0
  0
VERTEX
  5
17A
  8
0
  6
CONTINUOUS
 62
     7
 10
4.9681387285
 20
9.1515307377
 30
0.0
  0
SEQEND
  5
1C1
  8
0
  6
CONTINUOUS
 62
     7
  0
POLYLINE
  5
CA
  8
0
  6
CONTINUOUS
 62
     7
 66
     1
 10
0.0
 20
0.0
 30
0.0
 70
   128
  0
VERTEX
  5
17B
  8
0
  6
CONTINUOUS
 62
     7
 10
4.8444715156
 20
9.06267925
 30
0.0
  0
VERTEX
  5
17C
  8
0
  6
CONTINUOUS
 62
     7
 10
4.8426099799
 20
9.0775142976
 30
0.0
  0
VERTEX
  5
17D
  8
0
  6
CONTINUOUS
 62
     7
 10
4.8421651111
 20
9.0892578161
 30
0.0
  0
SEQEND
  5
1C2
  8
0
  6
CONTINUOUS
 62
     7
  0
POLYLINE
  5
CB
  8
0
  6
CONTINUOUS
 62
     7
 66
     1
 10
0.0
 20
0.0
 30
0.0
 70
   128
  0
VERTEX
  5
17E
  8
0
  6
CONTINUOUS
 62
     7
 10
4.7016940941
 20
9.277504355
 30
0.0
  0
VERTEX
  5
17F
  8
0
  6
CONTINUOUS
 62
     7
 10
4.7011484342
 20
9.275435947
 30
0.0
  0
VERTEX
  5
180
  8
0
  6
CONTINUOUS
 62
     7
 10
4.7009252926
 20
9.2737701763
 30
0.0
  0
SEQEND
  5
1C3
  8
0
  6
CONTINUOUS
 62
     7
  0
POLYLINE
  5
CC
  8
0
  6
CONTINUOUS
 62
     7
 66
     1
 10
0.0
 20
0.0
 30
0.0
 70
   128
  0
VERTEX
  5
181
  8
0
  6
CONTINUOUS
 62
     7
 10
4.7009252926
 20
9.2737701763
 30
0.0
  0
VERTEX
  5
182
  8
0
  6
CONTINUOUS
 62
     7
 10
4.6998646569
 20
9.2690369297
 30
0.0
  0
VERTEX
  5
183
  8
0
  6
CONTINUOUS
 62
     7
 10
4.6986188881
 20
9.2654231886
 30
0.0
  0
SEQEND
  5
1C4
  8
0
  6
CONTINUOUS
 62
     7
  0
POLYLINE
  5
CE
  8
0
  6
CONTINUOUS
 62
     7
 66
     1
 10
0.0
 20
0.0
 30
0.0
 70
   128
  0
VERTEX
  5
184
  8
0
  6
CONTINUOUS
 62
     7
 10
4.8793970695
 20
9.2654231886
 30
0.0
  0
VERTEX
  5
185
  8
0
  6
CONTINUOUS
 62
     7
 10
4.8797852589
 20
9.2317806431
 30
0.0
  0
VERTEX
  5
186
  8
0
  6
CONTINUOUS
 62
     7
 10
4.8800560422
 20
9.2053468428
 30
0.0
  0
SEQEND
  5
1C5
  8
0
  6
CONTINUOUS
 62
     7
  0
POLYLINE
  5
CF
  8
0
  6
CONTINUOUS
 62
     7
 66
     1
 10
0.0
 20
0.0
 30
0.0
 70
   128
  0
VERTEX
  5
187
  8
0
  6
CONTINUOUS
 62
     7
 10
4.8800560422
 20
9.2053468428
 30
0.0
  0
VERTEX
  5
188
  8
0
  6
CONTINUOUS
 62
     7
 10
4.8791235732
 20
9.1496623165
 30
0.0
  0
VERTEX
  5
189
  8
0
  6
CONTINUOUS
 62
     7
 10
4.877090665
 20
9.1059517916
 30
0.0
  0
SEQEND
  5
1C6
  8
0
  6
CONTINUOUS
 62
     7
  0
POLYLINE
  5
D0
  8
0
  6
CONTINUOUS
 62
     7
 66
     1
 10
0.0
 20
0.0
 30
0.0
 70
   128
  0
VERTEX
  5
18A
  8
0
  6
CONTINUOUS
 62
     7
 10
4.8808248437
 20
9.061141647
 30
0.0
  0
VERTEX
  5
18B
  8
0
  6
CONTINUOUS
 62
     7
 10
4.8809849848
 20
9.055165081
 30
0.0
  0
VERTEX
  5
18C
  8
0
  6
CONTINUOUS
 62
     7
 10
4.883677819
 20
9.0498336081
 30
0.0
  0
VERTEX
  5
18D
  8
0
  6
CONTINUOUS
 62
     7
 10
4.888071164
 20
9.0457619825
 30
0.0
  0
VERTEX
  5
18E
  8
0
  6
CONTINUOUS
 62
     7
 10
4.8934836491
 20
9.0431793215
 30
0.0
  0
VERTEX
  5
18F
  8
0
  6
CONTINUOUS
 62
     7
 10
4.9052950273
 20
9.0412228083
 30
0.0
  0
VERTEX
  5
190
  8
0
  6
CONTINUOUS
 62
     7
 10
4.9172880006
 20
9.0413724655
 30
0.0
  0
SEQEND
  5
1C7
  8
0
  6
CONTINUOUS
 62
     7
  0
POLYLINE
  5
D1
  8
0
  6
CONTINUOUS
 62
     7
 66
     1
 10
0.0
 20
0.0
 30
0.0
 70
   128
  0
VERTEX
  5
191
  8
0
  6
CONTINUOUS
 62
     7
 10
4.7040004986
 20
9.2881577473
 30
0.0
  0
VERTEX
  5
192
  8
0
  6
CONTINUOUS
 62
     7
 10
4.7026852538
 20
9.2821964223
 30
0.0
  0
VERTEX
  5
193
  8
0
  6
CONTINUOUS
 62
     7
 10
4.7016940941
 20
9.277504355
 30
0.0
  0
SEQEND
  5
1C8
  8
0
  6
CONTINUOUS
 62
     7
  0
POLYLINE
  5
D2
  8
0
  6
CONTINUOUS
 62
     7
 66
     1
 10
0.0
 20
0.0
 30
0.0
 70
   128
  0
VERTEX
  5
194
  8
0
  6
CONTINUOUS
 62
     7
 10
4.7009252926
 20
9.2615791811
 30
0.0
  0
VERTEX
  5
195
  8
0
  6
CONTINUOUS
 62
     7
 10
4.745129242
 20
9.2640822755
 30
0.0
  0
VERTEX
  5
196
  8
0
  6
CONTINUOUS
 62
     7
 10
4.7798921896
 20
9.2654231886
 30
0.0
  0
SEQEND
  5
1C9
  8
0
  6
CONTINUOUS
 62
     7
  0
POLYLINE
  5
D4
  8
0
  6
CONTINUOUS
 62
     7
 66
     1
 10
0.0
 20
0.0
 30
0.0
 70
   128
  0
VERTEX
  5
197
  8
0
  6
CONTINUOUS
 62
     7
 10
4.6986188881
 20
9.2654231886
 30
0.0
  0
VERTEX
  5
198
  8
0
  6
CONTINUOUS
 62
     7
 10
4.6980148482
 20
9.2640200069
 30
0.0
  0
VERTEX
  5
199
  8
0
  6
CONTINUOUS
 62
     7
 10
4.6979123272
 20
9.2632370155
 30
0.0
  0
VERTEX
  5
19A
  8
0
  6
CONTINUOUS
 62
     7
 10
4.6981051313
 20
9.2625061549
 30
0.0
  0
VERTEX
  5
19B
  8
0
  6
CONTINUOUS
 62
     7
 10
4.698667727
 20
9.2619843993
 30
0.0
  0
VERTEX
  5
19C
  8
0
  6
CONTINUOUS
 62
     7
 10
4.6993989704
 20
9.26169383
 30
0.0
  0
VERTEX
  5
19D
  8
0
  6
CONTINUOUS
 62
     7
 10
4.7009252926
 20
9.2615791811
 30
0.0
  0
SEQEND
  5
1CA
  8
0
  6
CONTINUOUS
 62
     7
  0
POLYLINE
  5
D5
  8
0
  6
CONTINUOUS
 62
     7
 66
     1
 10
0.0
 20
0.0
 30
0.0
 70
   128
  0
VERTEX
  5
19E
  8
0
  6
CONTINUOUS
 62
     7
 10
4.817124148
 20
9.2524633919
 30
0.0
  0
VERTEX
  5
19F
  8
0
  6
CONTINUOUS
 62
     7
 10
4.7879311946
 20
9.2473813499
 30
0.0
  0
VERTEX
  5
1A0
  8
0
  6
CONTINUOUS
 62
     7
 10
4.7590313292
 20
9.2408107511
 30
0.0
  0
VERTEX
  5
1A1
  8
0
  6
CONTINUOUS
 62
     7
 10
4.7313399432
 20
9.2303243638
 30
0.0
  0
VERTEX
  5
1A2
  8
0
  6
CONTINUOUS
 62
     7
 10
4.7124036598
 20
9.2187451512
 30
0.0
  0
VERTEX
  5
1A3
  8
0
  6
CONTINUOUS
 62
     7
 10
4.696309694
 20
9.2034763072
 30
0.0
  0
VERTEX
  5
1A4
  8
0
  6
CONTINUOUS
 62
     7
 10
4.685777866
 20
9.1840286927
 30
0.0
  0
VERTEX
  5
1A5
  8
0
  6
CONTINUOUS
 62
     7
 10
4.6826937141
 20
9.1620743011
 30
0.0
  0
SEQEND
  5
1CB
  8
0
  6
CONTINUOUS
 62
     7
  0
POLYLINE
  5
DB
  8
0
  6
CONTINUOUS
 62
     7
 66
     1
 10
0.0
 20
0.0
 30
0.0
 70
   128
  0
VERTEX
  5
1A6
  8
0
  6
CONTINUOUS
 62
     7
 10
4.8315117189
 20
9.3040829212
 30
0.0
  0
VERTEX
  5
1A7
  8
0
  6
CONTINUOUS
 62
     7
 10
4.834425114
 20
9.3047492587
 30
0.0
  0
VERTEX
  5
1A8
  8
0
  6
CONTINUOUS
 62
     7
 10
4.8367835006
 20
9.3048517227
 30
0.0
  0
SEQEND
  5
1CC
  8
0
  6
CONTINUOUS
 62
     7
  0
POLYLINE
  5
DF
  8
0
  6
CONTINUOUS
 62
     7
 66
     1
 10
0.0
 20
0.0
 30
0.0
 70
   128
  0
VERTEX
  5
1A9
  8
0
  6
CONTINUOUS
 62
     7
 10
4.818661751
 20
9.119570561
 30
0.0
  0
VERTEX
  5
1AA
  8
0
  6
CONTINUOUS
 62
     7
 10
4.8147877287
 20
9.1191919567
 30
0.0
  0
VERTEX
  5
1AB
  8
0
  6
CONTINUOUS
 62
     7
 10
4.8117425375
 20
9.1189115883
 30
0.0
  0
SEQEND
  5
1CD
  8
0
  6
CONTINUOUS
 62
     7
  0
POLYLINE
  5
E2
  8
0
  6
CONTINUOUS
 62
     7
 66
     1
 10
0.0
 20
0.0
 30
0.0
 70
   128
  0
VERTEX
  5
1AC
  8
0
  6
CONTINUOUS
 62
     7
 10
4.8117425375
 20
9.1189115883
 30
0.0
  0
VERTEX
  5
1AD
  8
0
  6
CONTINUOUS
 62
     7
 10
4.7969181945
 20
9.1219368109
 30
0.0
  0
VERTEX
  5
1AE
  8
0
  6
CONTINUOUS
 62
     7
 10
4.783443814
 20
9.1288377714
 30
0.0
  0
VERTEX
  5
1AF
  8
0
  6
CONTINUOUS
 62
     7
 10
4.7756042609
 20
9.1376803671
 30
0.0
  0
VERTEX
  5
1B0
  8
0
  6
CONTINUOUS
 62
     7
 10
4.7730828048
 20
9.1492243332
 30
0.0
  0
SEQEND
  5
1CE
  8
0
  6
CONTINUOUS
 62
     7
  0
POLYLINE
  5
E5
  8
0
  6
CONTINUOUS
 62
     7
 66
     1
 10
0.0
 20
0.0
 30
0.0
 70
   128
  0
VERTEX
  5
1B1
  8
0
  6
CONTINUOUS
 62
     7
 10
4.8398587066
 20
9.12418337
 30
0.0
  0
VERTEX
  5
1B2
  8
0
  6
CONTINUOUS
 62
     7
 10
4.8281872089
 20
9.1207909399
 30
0.0
  0
VERTEX
  5
1B3
  8
0
  6
CONTINUOUS
 62
     7
 10
4.818661751
 20
9.119570561
 30
0.0
  0
SEQEND
  5
1CF
  8
0
  6
CONTINUOUS
 62
     7
  0
LINE
  5
E7
  8
0
  6
CONTINUOUS
 62
     7
 10
3.3419649546
 20
8.8907395519
 30
0.0
 11
3.3419649546
 21
8.9104245913
 31
0.0
  0
LINE
  5
E8
  8
0
  6
CONTINUOUS
 62
     7
 10
3.3419649546
 20
9.5009757724
 30
0.0
 11
3.3419649546
 21
9.5206608117
 31
0.0
  0
LINE
  5
E9
  8
0
  6
CONTINUOUS
 62
     7
 10
3.3565889184
 20
9.594661481
 30
0.0
 11
2.8958137576
 21
9.8380784068
 31
0.0
  0
LINE
  5
EA
  8
0
  6
CONTINUOUS
 62
     7
 10
2.7514137735
 20
9.7510506049
 30
0.0
 11
2.7514137735
 21
8.6603497588
 31
0.0
  0
LINE
  5
EB
  8
0
  6
CONTINUOUS
 62
     7
 10
2.8958137576
 20
8.5733219569
 30
0.0
 11
3.3565889184
 21
8.8167388826
 31
0.0
  0
LINE
  5
EC
  8
0
  6
CONTINUOUS
 62
     7
 10
5.6057444822
 20
9.5600308905
 30
0.0
 11
4.0294992447
 21
9.5600308905
 31
0.0
  0
LINE
  5
ED
  8
0
  6
CONTINUOUS
 62
     7
 10
5.8419649546
 20
9.0875899456
 30
0.0
 11
5.8419649546
 21
9.323810418
 31
0.0
  0
LINE
  5
EE
  8
0
  6
CONTINUOUS
 62
     7
 10
4.0294992447
 20
8.8513694732
 30
0.0
 11
5.6057444822
 21
8.8513694732
 31
0.0
  0
LINE
  5
EF
  8
0
  6
CONTINUOUS
 62
     7
 10
2.5545633798
 20
9.7510506049
 30
0.0
 11
2.5545633798
 21
8.6603497588
 31
0.0
  0
LINE
  5
F0
  8
0
  6
CONTINUOUS
 62
     7
 10
3.6791713656
 20
9.6468790398
 30
0.0
 11
2.9877633322
 21
10.0121340107
 31
0.0
  0
LINE
  5
F1
  8
0
  6
CONTINUOUS
 62
     7
 10
5.2298968158
 20
9.3611997781
 30
0.0
 11
5.3368608782
 21
9.2542357157
 31
0.0
  0
LINE
  5
F2
  8
0
  6
CONTINUOUS
 62
     7
 10
5.3333253443
 20
9.2457001818
 30
0.0
 11
5.1820553166
 21
9.2457001818
 31
0.0
  0
LINE
  5
F3
  8
0
  6
CONTINUOUS
 62
     7
 10
5.1820553166
 20
9.1657001818
 30
0.0
 11
5.3333253443
 21
9.1657001818
 31
0.0
  0
LINE
  5
F4
  8
0
  6
CONTINUOUS
 62
     7
 10
5.3368608782
 20
9.1571646479
 30
0.0
 11
5.2298968158
 21
9.0502005856
 31
0.0
  0
LINE
  5
F5
  8
0
  6
CONTINUOUS
 62
     7
 10
5.2864653583
 20
8.9936320431
 30
0.0
 11
5.3934294207
 21
9.1005961054
 31
0.0
  0
LINE
  5
F6
  8
0
  6
CONTINUOUS
 62
     7
 10
5.4019649546
 20
9.0970605715
 30
0.0
 11
5.4019649546
 21
8.9457905438
 31
0.0
  0
LINE
  5
F7
  8
0
  6
CONTINUOUS
 62
     7
 10
5.4819649546
 20
8.9457905438
 30
0.0
 11
5.4819649546
 21
9.0970605715
 31
0.0
  0
LINE
  5
F8
  8
0
  6
CONTINUOUS
 62
     7
 10
5.6540330934
 20
9.0502005856
 30
0.0
 11
5.547069031
 21
9.1571646479
 31
0.0
  0
LINE
  5
F9
  8
0
  6
CONTINUOUS
 62
     7
 10
5.5506045649
 20
9.1657001818
 30
0.0
 11
5.7018745926
 21
9.1657001818
 31
0.0
  0
LINE
  5
FA
  8
0
  6
CONTINUOUS
 62
     7
 10
5.547069031
 20
9.2542357157
 30
0.0
 11
5.6540330934
 21
9.3611997781
 31
0.0
  0
LINE
  5
FB
  8
0
  6
CONTINUOUS
 62
     7
 10
4.9681387285
 20
9.1515307377
 30
0.0
 11
4.9696763315
 21
9.1758028994
 31
0.0
  0
LINE
  5
FC
  8
0
  6
CONTINUOUS
 62
     7
 10
4.971982736
 20
9.2138036593
 30
0.0
 11
4.971982736
 21
9.2213818455
 31
0.0
  0
LINE
  5
FD
  8
0
  6
CONTINUOUS
 62
     7
 10
4.8444715156
 20
9.3716276245
 30
0.0
 11
4.8307429174
 21
9.3716276245
 31
0.0
  0
LINE
  5
FE
  8
0
  6
CONTINUOUS
 62
     7
 10
4.8284365129
 20
9.3040829212
 30
0.0
 11
4.8315117189
 21
9.3040829212
 31
0.0
  0
LINE
  5
FF
  8
0
  6
CONTINUOUS
 62
     7
 10
4.877090665
 20
9.1059517916
 30
0.0
 11
4.877090665
 21
9.0929919949
 31
0.0
  0
LINE
  5
100
  8
0
  6
CONTINUOUS
 62
     7
 10
4.9172880006
 20
9.0413724655
 30
0.0
 11
4.9195944051
 21
9.0413724655
 31
0.0
  0
LINE
  5
101
  8
0
  6
CONTINUOUS
 62
     7
 10
4.8421651111
 20
9.0892578161
 30
0.0
 11
4.8421651111
 21
9.0976048039
 31
0.0
  0
LINE
  5
102
  8
0
  6
CONTINUOUS
 62
     7
 10
4.8429339126
 20
9.1059517916
 30
0.0
 11
4.8429339126
 21
9.122645767
 31
0.0
  0
LINE
  5
103
  8
0
  6
CONTINUOUS
 62
     7
 10
4.7730828048
 20
9.1492243332
 30
0.0
 11
4.7730828048
 21
9.1522995392
 31
0.0
  0
LINE
  5
104
  8
0
  6
CONTINUOUS
 62
     7
 10
4.8375523021
 20
9.1878840658
 30
0.0
 11
4.8390899051
 21
9.1901904703
 31
0.0
  0
LINE
  5
105
  8
0
  6
CONTINUOUS
 62
     7
 10
4.8390899051
 20
9.1901904703
 30
0.0
 11
4.8390899051
 21
9.2532321934
 31
0.0
  0
LINE
  5
106
  8
0
  6
CONTINUOUS
 62
     7
 10
4.8367835006
 20
9.2555385979
 30
0.0
 11
4.8247023342
 21
9.2532321934
 31
0.0
  0
LINE
  5
107
  8
0
  6
CONTINUOUS
 62
     7
 10
5.4819649546
 20
9.3143397921
 30
0.0
 11
5.4819649546
 21
9.4656098198
 31
0.0
  0
LINE
  5
108
  8
0
  6
CONTINUOUS
 62
     7
 10
4.8451304884
 20
8.9359368311
 30
0.0
 11
4.8451304884
 21
8.9533996081
 31
0.0
  0
LINE
  5
109
  8
0
  6
CONTINUOUS
 62
     7
 10
5.7018745926
 20
9.2457001818
 30
0.0
 11
5.5506045649
 21
9.2457001818
 31
0.0
  0
LINE
  5
10A
  8
0
  6
CONTINUOUS
 62
     7
 10
4.8390899051
 20
9.4339005461
 30
0.0
 11
4.8429339126
 21
9.4339005461
 31
0.0
  0
LINE
  5
10B
  8
0
  6
CONTINUOUS
 62
     7
 10
5.5974645509
 20
9.4177683206
 30
0.0
 11
5.4905004885
 21
9.3108042582
 31
0.0
  0
LINE
  5
10C
  8
0
  6
CONTINUOUS
 62
     7
 10
5.4019649546
 20
9.4656098198
 30
0.0
 11
5.4019649546
 21
9.3143397921
 31
0.0
  0
LINE
  5
10D
  8
0
  6
CONTINUOUS
 62
     7
 10
2.9877633322
 20
8.399266353
 30
0.0
 11
3.6791713656
 21
8.7645213239
 31
0.0
  0
LINE
  5
10E
  8
0
  6
CONTINUOUS
 62
     7
 10
5.3934294207
 20
9.3108042582
 30
0.0
 11
5.2864653583
 21
9.4177683206
 31
0.0
  0
LINE
  5
10F
  8
0
  6
CONTINUOUS
 62
     7
 10
5.4905004885
 20
9.1005961054
 30
0.0
 11
5.5974645509
 21
8.9936320431
 31
0.0
  0
LINE
  5
110
  8
0
  6
CONTINUOUS
 62
     7
 10
4.8793970695
 20
9.2683885658
 30
0.0
 11
4.8793970695
 21
9.2654231886
 31
0.0
  0
ARC
  5
111
  8
0
  6
CONTINUOUS
 62
     7
 10
3.3381990035
 20
8.8515500034
 30
0.0
 40
0.0393700787398959
 50
297.8464640731
 51
84.5109706984
  0
ARC
  5
112
  8
0
  6
CONTINUOUS
 62
     7
 10
0.8594637309
 20
9.2057001818
 30
0.0
 40
2.499999999997147
 50
353.2169485366
 51
6.7830514633
  0
ARC
  5
113
  8
0
  6
CONTINUOUS
 62
     7
 10
3.3381990035
 20
9.5598503603
 30
0.0
 40
0.0393700787402341
 50
275.4890293045
 51
62.1535359251
  0
ARC
  5
114
  8
0
  6
CONTINUOUS
 62
     7
 10
2.8498389703
 20
9.7510506049
 30
0.0
 40
0.098425196849357
 50
62.1535359253
 51
180.0000000003
  0
ARC
  5
115
  8
0
  6
CONTINUOUS
 62
     7
 10
5.6057444822
 20
9.323810418
 30
0.0
 40
0.2362204724409462
 50
0.0000000005
 51
90.0
  0
ARC
  5
116
  8
0
  6
CONTINUOUS
 62
     7
 10
5.6057444822
 20
9.0875899456
 30
0.0
 40
0.2362204724409462
 50
270.0
 51
0.0
  0
ARC
  5
117
  8
0
  6
CONTINUOUS
 62
     7
 10
2.8498389703
 20
8.6603497588
 30
0.0
 40
0.2952755905511822
 50
179.9999999995
 51
297.8464640751
  0
ARC
  5
118
  8
0
  6
CONTINUOUS
 62
     7
 10
4.0294992447
 20
10.3100308905
 30
0.0
 40
0.7499999999999948
 50
242.1535359257
 51
269.9999999998
  0
ARC
  5
119
  8
0
  6
CONTINUOUS
 62
     7
 10
5.3969649546
 20
9.3143397921
 30
0.0
 40
0.0049999999999999
 50
225.0
 51
0.0
  0
ARC
  5
11A
  8
0
  6
CONTINUOUS
 62
     7
 10
5.2581810871
 20
9.3894840493
 30
0.0
 40
0.0400000000000002
 50
45.0
 51
225.0
  0
ARC
  5
11B
  8
0
  6
CONTINUOUS
 62
     7
 10
5.3333253443
 20
9.2507001818
 30
0.0
 40
0.0050000000000008
 50
270.0
 51
45.0
  0
ARC
  5
11C
  8
0
  6
CONTINUOUS
 62
     7
 10
5.1820553166
 20
9.2057001818
 30
0.0
 40
0.0399999999999991
 50
90.0
 51
270.0
  0
ARC
  5
11D
  8
0
  6
CONTINUOUS
 62
     7
 10
5.3333253443
 20
9.1607001818
 30
0.0
 40
0.004999999999999
 50
315.0
 51
90.0
  0
ARC
  5
11E
  8
0
  6
CONTINUOUS
 62
     7
 10
5.3969649546
 20
9.0970605715
 30
0.0
 40
0.0050000000000008
 50
0.0
 51
135.0
  0
ARC
  5
11F
  8
0
  6
CONTINUOUS
 62
     7
 10
5.4419649546
 20
8.9457905438
 30
0.0
 40
0.0400000000000009
 50
180.0
 51
360.0
  0
ARC
  5
120
  8
0
  6
CONTINUOUS
 62
     7
 10
5.4869649546
 20
9.0970605715
 30
0.0
 40
0.0050000000000011
 50
45.0
 51
180.0
  0
ARC
  5
121
  8
0
  6
CONTINUOUS
 62
     7
 10
5.6257488221
 20
9.0219163143
 30
0.0
 40
0.0399999999999983
 50
225.0
 51
45.0
  0
ARC
  5
122
  8
0
  6
CONTINUOUS
 62
     7
 10
5.5506045649
 20
9.1607001818
 30
0.0
 40
0.0050000000000011
 50
90.0
 51
225.0
  0
ARC
  5
123
  8
0
  6
CONTINUOUS
 62
     7
 10
5.7018745926
 20
9.2057001818
 30
0.0
 40
0.0399999999999991
 50
270.0
 51
90.0
  0
ARC
  5
124
  8
0
  6
CONTINUOUS
 62
     7
 10
5.5506045649
 20
9.2507001818
 30
0.0
 40
0.0050000000000017
 50
135.0
 51
270.0
  0
ARC
  5
125
  8
0
  6
CONTINUOUS
 62
     7
 10
5.4869649546
 20
9.3143397921
 30
0.0
 40
0.0049999999999999
 50
180.0
 51
315.0
  0
ARC
  5
126
  8
0
  6
CONTINUOUS
 62
     7
 10
4.8369566767
 20
9.2534053695
 30
0.0
 40
0.0021402460923916
 50
355.3588891882
 51
94.6411108117
  0
ARC
  5
127
  8
0
  6
CONTINUOUS
 62
     7
 10
5.2581810871
 20
9.0219163143
 30
0.0
 40
0.039999999999997
 50
135.0
 51
315.0
  0
ARC
  5
128
  8
0
  6
CONTINUOUS
 62
     7
 10
2.8498389703
 20
9.7510506049
 30
0.0
 40
0.2952755905511801
 50
62.1535359249
 51
180.0000000001
  0
ARC
  5
129
  8
0
  6
CONTINUOUS
 62
     7
 10
5.4419649546
 20
9.4656098198
 30
0.0
 40
0.0400000000000018
 50
0.0
 51
180.0
  0
ARC
  5
12A
  8
0
  6
CONTINUOUS
 62
     7
 10
5.6257488221
 20
9.3894840493
 30
0.0
 40
0.0399999999999983
 50
315.0
 51
135.0
  0
ARC
  5
12B
  8
0
  6
CONTINUOUS
 62
     7
 10
2.8498389703
 20
8.6603497588
 30
0.0
 40
0.0984251968493587
 50
179.9999999986
 51
297.8464640749
  0
ARC
  5
12C
  8
0
  6
CONTINUOUS
 62
     7
 10
4.0294992447
 20
8.1013694732
 30
0.0
 40
0.7499999999999929
 50
90.0000000002
 51
117.8464640743
  0
ARC
  5
12D
  8
0
  6
CONTINUOUS
 62
     7
 10
4.8244914947
 20
9.2624210122
 30
0.0
 40
0.0418482715110658
 50
84.5907198519
 51
172.8637895416
  0
ARC
  5
12E
  8
0
  6
CONTINUOUS
 62
     7
 10
4.9695615761
 20
9.107335538
 30
0.0
 40
0.0050000000000012
 50
178.516467589
 51
293.2181693338
  0
ARC
  5
12F
  8
0
  6
CONTINUOUS
 62
     7
 10
4.8269541556
 20
9.2394214431
 30
0.0
 40
0.132260459406514
 50
88.3584681067
 51
158.3776424831
  0
ARC
  5
130
  8
0
  6
CONTINUOUS
 62
     7
 10
4.804733623
 20
9.173000563
 30
0.0
 40
0.1230252570363925
 50
189.6870423371
 51
264.7660630151
  0
ARC
  5
131
  8
0
  6
CONTINUOUS
 62
     7
 10
4.7804325322
 20
9.267917641
 30
0.0
 40
0.0025523054405977
 50
257.7775562347
 51
353.2977993493
  0
ARC
  5
132
  8
0
  6
CONTINUOUS
 62
     7
 10
4.8094134061
 20
9.1042929542
 30
0.0
 40
0.0552503421641762
 50
268.5427788799
 51
307.3514337056
  0
ARC
  5
133
  8
0
  6
CONTINUOUS
 62
     7
 10
4.8550476472
 20
9.1858162611
 30
0.0
 40
0.2969425706677029
 50
92.6349869911
 51
175.4851462034
  0
ARC
  5
134
  8
0
  6
CONTINUOUS
 62
     7
 10
4.9686439591
 20
8.9606638552
 30
0.0
 40
0.1237269039119873
 50
170.3491261489
 51
183.365882297
  0
ARC
  5
135
  8
0
  6
CONTINUOUS
 62
     7
 10
4.8811237138
 20
9.0629217942
 30
0.0
 40
0.0018050615936542
 50
163.0495035252
 51
260.4694566444
  0
ARC
  5
136
  8
0
  6
CONTINUOUS
 62
     7
 10
4.8492414739
 20
9.2149113858
 30
0.0
 40
0.2335196170562489
 50
182.3473885855
 51
269.3685886114
  0
ARC
  5
137
  8
0
  6
CONTINUOUS
 62
     7
 10
4.8394486661
 20
9.2391755871
 30
0.0
 40
0.1325472415079532
 50
359.1922533744
 51
87.8282686213
  0
ARC
  5
138
  8
0
  6
CONTINUOUS
 62
     7
 10
4.8463524914
 20
9.2309909156
 30
0.0
 40
0.2029384261845873
 50
4.5788281919
 51
90.9652159176
  0
ARC
  5
139
  8
0
  6
CONTINUOUS
 62
     7
 10
4.839721167
 20
9.2651526208
 30
0.0
 40
0.0398076447379227
 50
4.662692272
 51
94.2320774282
  0
ARC
  5
13A
  8
0
  6
CONTINUOUS
 62
     7
 10
4.834264658
 20
9.2146250398
 30
0.0
 40
0.2679147655085978
 50
8.1191892511
 51
88.4746573797
  0
ARC
  5
13B
  8
0
  6
CONTINUOUS
 62
     7
 10
4.8480333035
 20
9.2019322808
 30
0.0
 40
0.2321406049382516
 50
92.2079111177
 51
179.1572045569
  0
ARC
  5
13C
  8
0
  6
CONTINUOUS
 62
     7
 10
4.8595200816
 20
9.2323313568
 30
0.0
 40
0.3013832690510417
 50
184.4035608014
 51
267.1379366894
  0
ARC
  5
13D
  8
0
  6
CONTINUOUS
 62
     7
 10
4.8935361077
 20
9.2371834381
 30
0.0
 40
0.1554296703140692
 50
300.1200223433
 51
3.6918498749
  0
ARC
  5
13E
  8
0
  6
CONTINUOUS
 62
     7
 10
4.884310862
 20
9.2536464282
 30
0.0
 40
0.2151863463855046
 50
279.4372532041
 51
359.6850017047
  0
ENDSEC
  0
EOF
