  0
SECTION
  2
HEADER
  9
$ACADVER
  1
AC1009
  9
$DWGCODEPAGE
  3
ansi_1252
  9
$INSBASE
 10
0.0
 20
0.0
 30
0.0
  9
$EXTMIN
 10
-4.8399188051
 20
6.4819001482
 30
0.0
  9
$EXTMAX
 10
-3.0036407909
 20
7.1471829232
 30
0.0
  9
$LIMMIN
 10
0.0
 20
0.0
  9
$LIMMAX
 10
12.0
 20
9.0
  9
$ORTHOMODE
 70
     0
  9
$REGENMODE
 70
     1
  9
$FILLMODE
 70
     1
  9
$QTEXTMODE
 70
     0
  9
$MIRRTEXT
 70
     1
  9
$DRAGMODE
 70
     2
  9
$LTSCALE
 40
1.0
  9
$OSMODE
 70
    37
  9
$ATTMODE
 70
     1
  9
$TEXTSIZE
 40
0.1377952756
  9
$TRACEWID
 40
0.05
  9
$TEXTSTYLE
  7
STANDARD
  9
$CLAYER
  8
0
  9
$CELTYPE
  6
BYLAYER
  9
$CECOLOR
 62
   256
  9
$DIMSCALE
 40
1.0
  9
$DIMASZ
 40
0.13
  9
$DIMEXO
 40
0.0393700787
  9
$DIMDLI
 40
0.38
  9
$DIMRND
 40
0.0
  9
$DIMDLE
 40
0.0
  9
$DIMEXE
 40
0.0393700787
  9
$DIMTP
 40
0.0
  9
$DIMTM
 40
0.0
  9
$DIMTXT
 40
0.1377952756
  9
$DIMCEN
 40
0.09
  9
$DIMTSZ
 40
0.0
  9
$DIMTOL
 70
     0
  9
$DIMLIM
 70
     0
  9
$DIMTIH
 70
     1
  9
$DIMTOH
 70
     1
  9
$DIMSE1
 70
     0
  9
$DIMSE2
 70
     0
  9
$DIMTAD
 70
     1
  9
$DIMZIN
 70
     0
  9
$DIMBLK
  1

  9
$DIMASO
 70
     1
  9
$DIMSHO
 70
     1
  9
$DIMPOST
  1

  9
$DIMAPOST
  1

  9
$DIMALT
 70
     0
  9
$DIMALTD
 70
     2
  9
$DIMALTF
 40
25.4
  9
$DIMLFAC
 40
1.0
  9
$DIMTOFL
 70
     0
  9
$DIMTVP
 40
0.0
  9
$DIMTIX
 70
     0
  9
$DIMSOXD
 70
     0
  9
$DIMSAH
 70
     0
  9
$DIMBLK1
  1

  9
$DIMBLK2
  1

  9
$DIMSTYLE
  2
STANDARD
  9
$DIMCLRD
 70
     0
  9
$DIMCLRE
 70
     0
  9
$DIMCLRT
 70
     0
  9
$DIMTFAC
 40
1.0
  9
$DIMGAP
 40
0.06
  9
$LUNITS
 70
     2
  9
$LUPREC
 70
     2
  9
$SKETCHINC
 40
0.1
  9
$FILLETRAD
 40
0.5
  9
$AUNITS
 70
     0
  9
$AUPREC
 70
     2
  9
$MENU
  1
.
  9
$ELEVATION
 40
0.0
  9
$PELEVATION
 40
0.0
  9
$THICKNESS
 40
0.0
  9
$LIMCHECK
 70
     0
  9
$CHAMFERA
 40
0.0
  9
$CHAMFERB
 40
0.0
  9
$SKPOLY
 70
     0
  9
$TDCREATE
 40
2457836.645491331
  9
$TDUPDATE
 40
2457836.645518738
  9
$TDINDWG
 40
0.0000000116
  9
$TDUSRTIMER
 40
0.0000000116
  9
$USRTIMER
 70
     1
  9
$ANGBASE
 50
0.0
  9
$ANGDIR
 70
     0
  9
$PDMODE
 70
     0
  9
$PDSIZE
 40
-1.0
  9
$PLINEWID
 40
0.0
  9
$COORDS
 70
     1
  9
$SPLFRAME
 70
     0
  9
$SPLINETYPE
 70
     6
  9
$SPLINESEGS
 70
     8
  9
$ATTDIA
 70
     0
  9
$ATTREQ
 70
     1
  9
$HANDLING
 70
     1
  9
$HANDSEED
  5
1A8
  9
$SURFTAB1
 70
     6
  9
$SURFTAB2
 70
     6
  9
$SURFTYPE
 70
     6
  9
$SURFU
 70
     6
  9
$SURFV
 70
     6
  9
$UCSNAME
  2

  9
$UCSORG
 10
0.0
 20
0.0
 30
0.0
  9
$UCSXDIR
 10
1.0
 20
0.0
 30
0.0
  9
$UCSYDIR
 10
0.0
 20
1.0
 30
0.0
  9
$PUCSNAME
  2

  9
$PUCSORG
 10
0.0
 20
0.0
 30
0.0
  9
$PUCSXDIR
 10
1.0
 20
0.0
 30
0.0
  9
$PUCSYDIR
 10
0.0
 20
1.0
 30
0.0
  9
$USERI1
 70
     0
  9
$USERI2
 70
     0
  9
$USERI3
 70
     0
  9
$USERI4
 70
     0
  9
$USERI5
 70
     0
  9
$USERR1
 40
0.0
  9
$USERR2
 40
0.0
  9
$USERR3
 40
0.0
  9
$USERR4
 40
0.0
  9
$USERR5
 40
0.0
  9
$WORLDVIEW
 70
     1
  9
$SHADEDGE
 70
     3
  9
$SHADEDIF
 70
    70
  9
$TILEMODE
 70
     1
  9
$MAXACTVP
 70
    64
  9
$PLIMCHECK
 70
     0
  9
$PEXTMIN
 10
1.0000000000E+20
 20
1.0000000000E+20
 30
1.0000000000E+20
  9
$PEXTMAX
 10
-1.0000000000E+20
 20
-1.0000000000E+20
 30
-1.0000000000E+20
  9
$PLIMMIN
 10
0.0
 20
0.0
  9
$PLIMMAX
 10
12.0
 20
9.0
  9
$UNITMODE
 70
     0
  9
$VISRETAIN
 70
     1
  9
$PLINEGEN
 70
     0
  9
$PSLTSCALE
 70
     1
  0
ENDSEC
  0
SECTION
  2
TABLES
  0
TABLE
  2
VPORT
 70
     1
  0
VPORT
  2
*ACTIVE
 70
     0
 10
0.0
 20
0.0
 11
1.0
 21
1.0
 12
-3.921779798
 22
6.8145415357
 13
0.0
 23
0.0
 14
0.5
 24
0.5
 15
0.5
 25
0.5
 16
0.0
 26
0.0
 36
1.0
 17
0.0
 27
0.0
 37
0.0
 40
0.6785884305
 41
2.7601466371
 42
50.0
 43
0.0
 44
0.0
 50
0.0
 51
0.0
 71
     0
 72
   100
 73
     1
 74
     3
 75
     0
 76
     0
 77
     0
 78
     0
  0
ENDTAB
  0
TABLE
  2
LTYPE
 70
     6
  0
LTYPE
  2
CONTINUOUS
 70
     0
  3
Solid line
 72
    65
 73
     0
 40
0.0
  0
LTYPE
  2
HIDDEN
 70
     0
  3
Hidden __ __ __ __ __ __ __ __ __ __ __ __ __ __
 72
    65
 73
     2
 40
0.075
 49
0.05
 49
-0.025
  0
LTYPE
  2
PHANTOM
 70
     0
  3
Phantom ______  __  __  ______  __  __  ______
 72
    65
 73
     6
 40
0.5
 49
0.25
 49
-0.05
 49
0.05
 49
-0.05
 49
0.05
 49
-0.05
  0
LTYPE
  2
CENTER
 70
     0
  3
Center ____ _ ____ _ ____ _ ____ _ ____ _ ____
 72
    65
 73
     4
 40
0.4
 49
0.25
 49
-0.05
 49
0.05
 49
-0.05
  0
LTYPE
  2
CENTERX2
 70
     0
  3
Center (2x) ________  __  ________  __  _____
 72
    65
 73
     4
 40
0.8
 49
0.5
 49
-0.1
 49
0.1
 49
-0.1
  0
LTYPE
  2
DOT2
 70
     0
  3
Dot (.5x) ........................................
 72
    65
 73
     2
 40
0.025
 49
0.0
 49
-0.025
  0
ENDTAB
  0
TABLE
  2
LAYER
 70
     1
  0
LAYER
  2
0
 70
     0
 62
     7
  6
CONTINUOUS
  0
ENDTAB
  0
TABLE
  2
STYLE
 70
     1
  0
STYLE
  2
STANDARD
 70
     0
 40
0.0
 41
1.0
 50
0.0
 71
     0
 42
0.1377952756
  3
txt
  4

  0
ENDTAB
  0
TABLE
  2
VIEW
 70
     0
  0
ENDTAB
  0
TABLE
  2
UCS
 70
     0
  0
ENDTAB
  0
TABLE
  2
APPID
 70
     1
  0
APPID
  2
ACAD
 70
     0
  0
ENDTAB
  0
TABLE
  2
DIMSTYLE
 70
     1
  0
DIMSTYLE
  2
STANDARD
 70
     0
  3

  4

  5

  6

  7

 40
1.0
 41
0.18
 42
0.0625
 43
0.38
 44
0.18
 45
0.0
 46
0.0
 47
0.0
 48
0.0
140
0.18
141
0.09
142
0.0
143
25.4
144
1.0
145
0.0
146
1.0
147
0.09
 71
     0
 72
     0
 73
     1
 74
     1
 75
     0
 76
     0
 77
     0
 78
     0
170
     0
171
     2
172
     0
173
     0
174
     0
175
     0
176
     0
177
     0
178
     0
  0
ENDTAB
  0
ENDSEC
  0
SECTION
  2
BLOCKS
  0
BLOCK
  8
0
  2
$MODEL_SPACE
 70
     0
 10
0.0
 20
0.0
 30
0.0
  3
$MODEL_SPACE
  1

  0
ENDBLK
  5
21
  8
0
  0
BLOCK
 67
     1
  8
0
  2
$PAPER_SPACE
 70
     0
 10
0.0
 20
0.0
 30
0.0
  3
$PAPER_SPACE
  1

  0
ENDBLK
  5
1D
 67
     1
  8
0
  0
ENDSEC
  0
SECTION
  2
ENTITIES
  0
CIRCLE
  5
73
  8
0
  6
CONTINUOUS
 62
     7
 10
-4.6627534507
 20
6.6590655025
 30
0.0
 40
0.0787401574795288
  0
POLYLINE
  5
7D
  8
0
  6
CONTINUOUS
 62
     7
 66
     1
 10
0.0
 20
0.0
 30
0.0
 70
   128
  0
VERTEX
  5
113
  8
0
  6
CONTINUOUS
 62
     7
 10
-4.400535841
 20
6.8033476277
 30
0.0
  0
VERTEX
  5
114
  8
0
  6
CONTINUOUS
 62
     7
 10
-4.4006357593
 20
6.8052241673
 30
0.0
  0
VERTEX
  5
115
  8
0
  6
CONTINUOUS
 62
     7
 10
-4.4008433616
 20
6.8066864228
 30
0.0
  0
SEQEND
  5
18B
  8
0
  6
CONTINUOUS
 62
     7
  0
POLYLINE
  5
81
  8
0
  6
CONTINUOUS
 62
     7
 66
     1
 10
0.0
 20
0.0
 30
0.0
 70
   128
  0
VERTEX
  5
116
  8
0
  6
CONTINUOUS
 62
     7
 10
-4.507728736
 20
6.8300579884
 30
0.0
  0
VERTEX
  5
117
  8
0
  6
CONTINUOUS
 62
     7
 10
-4.5082548339
 20
6.8276734584
 30
0.0
  0
VERTEX
  5
118
  8
0
  6
CONTINUOUS
 62
     7
 10
-4.5086512978
 20
6.8257966315
 30
0.0
  0
SEQEND
  5
18C
  8
0
  6
CONTINUOUS
 62
     7
  0
POLYLINE
  5
82
  8
0
  6
CONTINUOUS
 62
     7
 66
     1
 10
0.0
 20
0.0
 30
0.0
 70
   128
  0
VERTEX
  5
119
  8
0
  6
CONTINUOUS
 62
     7
 10
-4.5086512978
 20
6.8257966315
 30
0.0
  0
VERTEX
  5
11A
  8
0
  6
CONTINUOUS
 62
     7
 10
-4.5088695618
 20
6.8249692683
 30
0.0
  0
VERTEX
  5
11B
  8
0
  6
CONTINUOUS
 62
     7
 10
-4.5089588184
 20
6.82430296
 30
0.0
  0
SEQEND
  5
18D
  8
0
  6
CONTINUOUS
 62
     7
  0
POLYLINE
  5
83
  8
0
  6
CONTINUOUS
 62
     7
 66
     1
 10
0.0
 20
0.0
 30
0.0
 70
   128
  0
VERTEX
  5
11C
  8
0
  6
CONTINUOUS
 62
     7
 10
-4.5089588184
 20
6.82430296
 30
0.0
  0
VERTEX
  5
11D
  8
0
  6
CONTINUOUS
 62
     7
 10
-4.5093830727
 20
6.8224096614
 30
0.0
  0
VERTEX
  5
11E
  8
0
  6
CONTINUOUS
 62
     7
 10
-4.5098813802
 20
6.8209641649
 30
0.0
  0
SEQEND
  5
18E
  8
0
  6
CONTINUOUS
 62
     7
  0
POLYLINE
  5
84
  8
0
  6
CONTINUOUS
 62
     7
 66
     1
 10
0.0
 20
0.0
 30
0.0
 70
   128
  0
VERTEX
  5
11F
  8
0
  6
CONTINUOUS
 62
     7
 10
-4.5098813802
 20
6.8209641649
 30
0.0
  0
VERTEX
  5
120
  8
0
  6
CONTINUOUS
 62
     7
 10
-4.5101229962
 20
6.8204028922
 30
0.0
  0
VERTEX
  5
121
  8
0
  6
CONTINUOUS
 62
     7
 10
-4.5101640046
 20
6.8200896957
 30
0.0
  0
VERTEX
  5
122
  8
0
  6
CONTINUOUS
 62
     7
 10
-4.5100868829
 20
6.8197973515
 30
0.0
  0
VERTEX
  5
123
  8
0
  6
CONTINUOUS
 62
     7
 10
-4.5098618446
 20
6.8195886492
 30
0.0
  0
VERTEX
  5
124
  8
0
  6
CONTINUOUS
 62
     7
 10
-4.5095693473
 20
6.8194724215
 30
0.0
  0
VERTEX
  5
125
  8
0
  6
CONTINUOUS
 62
     7
 10
-4.5089588184
 20
6.8194265619
 30
0.0
  0
SEQEND
  5
18F
  8
0
  6
CONTINUOUS
 62
     7
  0
POLYLINE
  5
85
  8
0
  6
CONTINUOUS
 62
     7
 66
     1
 10
0.0
 20
0.0
 30
0.0
 70
   128
  0
VERTEX
  5
126
  8
0
  6
CONTINUOUS
 62
     7
 10
-4.5089588184
 20
6.8194265619
 30
0.0
  0
VERTEX
  5
127
  8
0
  6
CONTINUOUS
 62
     7
 10
-4.4912772386
 20
6.8204277997
 30
0.0
  0
VERTEX
  5
128
  8
0
  6
CONTINUOUS
 62
     7
 10
-4.4773720596
 20
6.8209641649
 30
0.0
  0
SEQEND
  5
190
  8
0
  6
CONTINUOUS
 62
     7
  0
POLYLINE
  5
89
  8
0
  6
CONTINUOUS
 62
     7
 66
     1
 10
0.0
 20
0.0
 30
0.0
 70
   128
  0
VERTEX
  5
129
  8
0
  6
CONTINUOUS
 62
     7
 10
-4.4567242479
 20
6.836428058
 30
0.0
  0
VERTEX
  5
12A
  8
0
  6
CONTINUOUS
 62
     7
 10
-4.4555588898
 20
6.836694593
 30
0.0
  0
VERTEX
  5
12B
  8
0
  6
CONTINUOUS
 62
     7
 10
-4.4546155352
 20
6.8367355786
 30
0.0
  0
SEQEND
  5
191
  8
0
  6
CONTINUOUS
 62
     7
  0
POLYLINE
  5
8C
  8
0
  6
CONTINUOUS
 62
     7
 66
     1
 10
0.0
 20
0.0
 30
0.0
 70
   128
  0
VERTEX
  5
12C
  8
0
  6
CONTINUOUS
 62
     7
 10
-4.4375701076
 20
6.8209641649
 30
0.0
  0
VERTEX
  5
12D
  8
0
  6
CONTINUOUS
 62
     7
 10
-4.4374148319
 20
6.8075071467
 30
0.0
  0
VERTEX
  5
12E
  8
0
  6
CONTINUOUS
 62
     7
 10
-4.4373065185
 20
6.7969336266
 30
0.0
  0
SEQEND
  5
192
  8
0
  6
CONTINUOUS
 62
     7
  0
POLYLINE
  5
8D
  8
0
  6
CONTINUOUS
 62
     7
 66
     1
 10
0.0
 20
0.0
 30
0.0
 70
   128
  0
VERTEX
  5
12F
  8
0
  6
CONTINUOUS
 62
     7
 10
-4.4373065185
 20
6.7969336266
 30
0.0
  0
VERTEX
  5
130
  8
0
  6
CONTINUOUS
 62
     7
 10
-4.4376795061
 20
6.7746598161
 30
0.0
  0
VERTEX
  5
131
  8
0
  6
CONTINUOUS
 62
     7
 10
-4.4384926694
 20
6.7571756061
 30
0.0
  0
SEQEND
  5
193
  8
0
  6
CONTINUOUS
 62
     7
  0
POLYLINE
  5
8F
  8
0
  6
CONTINUOUS
 62
     7
 66
     1
 10
0.0
 20
0.0
 30
0.0
 70
   128
  0
VERTEX
  5
132
  8
0
  6
CONTINUOUS
 62
     7
 10
-4.4384926694
 20
6.7519916874
 30
0.0
  0
VERTEX
  5
133
  8
0
  6
CONTINUOUS
 62
     7
 10
-4.4381921963
 20
6.7453573263
 30
0.0
  0
VERTEX
  5
134
  8
0
  6
CONTINUOUS
 62
     7
 10
-4.4375701076
 20
6.7401741101
 30
0.0
  0
SEQEND
  5
194
  8
0
  6
CONTINUOUS
 62
     7
  0
POLYLINE
  5
91
  8
0
  6
CONTINUOUS
 62
     7
 66
     1
 10
0.0
 20
0.0
 30
0.0
 70
   128
  0
VERTEX
  5
135
  8
0
  6
CONTINUOUS
 62
     7
 10
-4.4369989979
 20
6.7392515483
 30
0.0
  0
VERTEX
  5
136
  8
0
  6
CONTINUOUS
 62
     7
 10
-4.4369349415
 20
6.7368609219
 30
0.0
  0
VERTEX
  5
137
  8
0
  6
CONTINUOUS
 62
     7
 10
-4.4358578078
 20
6.7347283327
 30
0.0
  0
VERTEX
  5
138
  8
0
  6
CONTINUOUS
 62
     7
 10
-4.4341004698
 20
6.7330996825
 30
0.0
  0
VERTEX
  5
139
  8
0
  6
CONTINUOUS
 62
     7
 10
-4.4319354758
 20
6.7320666181
 30
0.0
  0
VERTEX
  5
13A
  8
0
  6
CONTINUOUS
 62
     7
 10
-4.4272109245
 20
6.7312840128
 30
0.0
  0
VERTEX
  5
13B
  8
0
  6
CONTINUOUS
 62
     7
 10
-4.4224137352
 20
6.7313438757
 30
0.0
  0
SEQEND
  5
195
  8
0
  6
CONTINUOUS
 62
     7
  0
POLYLINE
  5
97
  8
0
  6
CONTINUOUS
 62
     7
 66
     1
 10
0.0
 20
0.0
 30
0.0
 70
   128
  0
VERTEX
  5
13C
  8
0
  6
CONTINUOUS
 62
     7
 10
-4.4515403292
 20
6.6873244983
 30
0.0
  0
VERTEX
  5
13D
  8
0
  6
CONTINUOUS
 62
     7
 10
-4.4514823197
 20
6.6871094135
 30
0.0
  0
VERTEX
  5
13E
  8
0
  6
CONTINUOUS
 62
     7
 10
-4.4514513255
 20
6.6870393245
 30
0.0
  0
VERTEX
  5
13F
  8
0
  6
CONTINUOUS
 62
     7
 10
-4.4514349828
 20
6.6870201976
 30
0.0
  0
VERTEX
  5
140
  8
0
  6
CONTINUOUS
 62
     7
 10
-4.4514265566
 20
6.6870154329
 30
0.0
  0
VERTEX
  5
141
  8
0
  6
CONTINUOUS
 62
     7
 10
-4.4514179438
 20
6.6870141794
 30
0.0
  0
VERTEX
  5
142
  8
0
  6
CONTINUOUS
 62
     7
 10
-4.4514113839
 20
6.6870156729
 30
0.0
  0
VERTEX
  5
143
  8
0
  6
CONTINUOUS
 62
     7
 10
-4.451404709
 20
6.6870193433
 30
0.0
  0
VERTEX
  5
144
  8
0
  6
CONTINUOUS
 62
     7
 10
-4.4513979337
 20
6.6870251352
 30
0.0
  0
VERTEX
  5
145
  8
0
  6
CONTINUOUS
 62
     7
 10
-4.4513817393
 20
6.6870461678
 30
0.0
  0
VERTEX
  5
146
  8
0
  6
CONTINUOUS
 62
     7
 10
-4.4513455934
 20
6.6871217728
 30
0.0
  0
VERTEX
  5
147
  8
0
  6
CONTINUOUS
 62
     7
 10
-4.4512904248
 20
6.6873028808
 30
0.0
  0
VERTEX
  5
148
  8
0
  6
CONTINUOUS
 62
     7
 10
-4.4512767401
 20
6.6891696219
 30
0.0
  0
SEQEND
  5
196
  8
0
  6
CONTINUOUS
 62
     7
  0
POLYLINE
  5
9F
  8
0
  6
CONTINUOUS
 62
     7
 66
     1
 10
0.0
 20
0.0
 30
0.0
 70
   128
  0
VERTEX
  5
149
  8
0
  6
CONTINUOUS
 62
     7
 10
-4.4035671155
 20
6.7547593728
 30
0.0
  0
VERTEX
  5
14A
  8
0
  6
CONTINUOUS
 62
     7
 10
-4.4030197321
 20
6.7663430874
 30
0.0
  0
VERTEX
  5
14B
  8
0
  6
CONTINUOUS
 62
     7
 10
-4.402073444
 20
6.7754071846
 30
0.0
  0
SEQEND
  5
197
  8
0
  6
CONTINUOUS
 62
     7
  0
POLYLINE
  5
A1
  8
0
  6
CONTINUOUS
 62
     7
 66
     1
 10
0.0
 20
0.0
 30
0.0
 70
   128
  0
VERTEX
  5
14C
  8
0
  6
CONTINUOUS
 62
     7
 10
-4.4014584028
 20
6.7851160492
 30
0.0
  0
VERTEX
  5
14D
  8
0
  6
CONTINUOUS
 62
     7
 10
-4.4007059763
 20
6.7936139228
 30
0.0
  0
VERTEX
  5
14E
  8
0
  6
CONTINUOUS
 62
     7
 10
-4.400535841
 20
6.8003163532
 30
0.0
  0
SEQEND
  5
198
  8
0
  6
CONTINUOUS
 62
     7
  0
POLYLINE
  5
A4
  8
0
  6
CONTINUOUS
 62
     7
 66
     1
 10
0.0
 20
0.0
 30
0.0
 70
   128
  0
VERTEX
  5
14F
  8
0
  6
CONTINUOUS
 62
     7
 10
-4.452462891
 20
6.753836811
 30
0.0
  0
VERTEX
  5
150
  8
0
  6
CONTINUOUS
 62
     7
 10
-4.4523629728
 20
6.7557133507
 30
0.0
  0
VERTEX
  5
151
  8
0
  6
CONTINUOUS
 62
     7
 10
-4.4521553704
 20
6.7571756061
 30
0.0
  0
SEQEND
  5
199
  8
0
  6
CONTINUOUS
 62
     7
  0
POLYLINE
  5
A6
  8
0
  6
CONTINUOUS
 62
     7
 66
     1
 10
0.0
 20
0.0
 30
0.0
 70
   128
  0
VERTEX
  5
152
  8
0
  6
CONTINUOUS
 62
     7
 10
-4.4521553704
 20
6.7638531963
 30
0.0
  0
VERTEX
  5
153
  8
0
  6
CONTINUOUS
 62
     7
 10
-4.4522543082
 20
6.7644202228
 30
0.0
  0
VERTEX
  5
154
  8
0
  6
CONTINUOUS
 62
     7
 10
-4.4523422872
 20
6.7646357539
 30
0.0
  0
VERTEX
  5
155
  8
0
  6
CONTINUOUS
 62
     7
 10
-4.4524948299
 20
6.7647975371
 30
0.0
  0
VERTEX
  5
156
  8
0
  6
CONTINUOUS
 62
     7
 10
-4.4527464927
 20
6.7648707831
 30
0.0
  0
VERTEX
  5
157
  8
0
  6
CONTINUOUS
 62
     7
 10
-4.4529937958
 20
6.7648191659
 30
0.0
  0
VERTEX
  5
158
  8
0
  6
CONTINUOUS
 62
     7
 10
-4.4533854528
 20
6.7644682375
 30
0.0
  0
SEQEND
  5
19A
  8
0
  6
CONTINUOUS
 62
     7
  0
POLYLINE
  5
A7
  8
0
  6
CONTINUOUS
 62
     7
 66
     1
 10
0.0
 20
0.0
 30
0.0
 70
   128
  0
VERTEX
  5
159
  8
0
  6
CONTINUOUS
 62
     7
 10
-4.4533854528
 20
6.7644682375
 30
0.0
  0
VERTEX
  5
15A
  8
0
  6
CONTINUOUS
 62
     7
 10
-4.4580540519
 20
6.7631112655
 30
0.0
  0
VERTEX
  5
15B
  8
0
  6
CONTINUOUS
 62
     7
 10
-4.461864235
 20
6.7626231139
 30
0.0
  0
SEQEND
  5
19B
  8
0
  6
CONTINUOUS
 62
     7
  0
POLYLINE
  5
A8
  8
0
  6
CONTINUOUS
 62
     7
 66
     1
 10
0.0
 20
0.0
 30
0.0
 70
   128
  0
VERTEX
  5
15C
  8
0
  6
CONTINUOUS
 62
     7
 10
-4.461864235
 20
6.7626231139
 30
0.0
  0
VERTEX
  5
15D
  8
0
  6
CONTINUOUS
 62
     7
 10
-4.463413844
 20
6.7624716722
 30
0.0
  0
VERTEX
  5
15E
  8
0
  6
CONTINUOUS
 62
     7
 10
-4.4646319205
 20
6.7623595248
 30
0.0
  0
SEQEND
  5
19C
  8
0
  6
CONTINUOUS
 62
     7
  0
POLYLINE
  5
A9
  8
0
  6
CONTINUOUS
 62
     7
 66
     1
 10
0.0
 20
0.0
 30
0.0
 70
   128
  0
VERTEX
  5
15F
  8
0
  6
CONTINUOUS
 62
     7
 10
-4.4646319205
 20
6.7623595248
 30
0.0
  0
VERTEX
  5
160
  8
0
  6
CONTINUOUS
 62
     7
 10
-4.4705616576
 20
6.7635696138
 30
0.0
  0
VERTEX
  5
161
  8
0
  6
CONTINUOUS
 62
     7
 10
-4.4759514098
 20
6.7663299981
 30
0.0
  0
VERTEX
  5
162
  8
0
  6
CONTINUOUS
 62
     7
 10
-4.4790872311
 20
6.7698670363
 30
0.0
  0
VERTEX
  5
163
  8
0
  6
CONTINUOUS
 62
     7
 10
-4.4800958135
 20
6.7744846228
 30
0.0
  0
SEQEND
  5
19D
  8
0
  6
CONTINUOUS
 62
     7
  0
POLYLINE
  5
AB
  8
0
  6
CONTINUOUS
 62
     7
 66
     1
 10
0.0
 20
0.0
 30
0.0
 70
   128
  0
VERTEX
  5
164
  8
0
  6
CONTINUOUS
 62
     7
 10
-4.4800958135
 20
6.7757147052
 30
0.0
  0
VERTEX
  5
165
  8
0
  6
CONTINUOUS
 62
     7
 10
-4.4796188009
 20
6.7793729891
 30
0.0
  0
VERTEX
  5
166
  8
0
  6
CONTINUOUS
 62
     7
 10
-4.4779037665
 20
6.7826273293
 30
0.0
  0
VERTEX
  5
167
  8
0
  6
CONTINUOUS
 62
     7
 10
-4.4751142659
 20
6.7850533968
 30
0.0
  0
VERTEX
  5
168
  8
0
  6
CONTINUOUS
 62
     7
 10
-4.4718050418
 20
6.7867023496
 30
0.0
  0
VERTEX
  5
169
  8
0
  6
CONTINUOUS
 62
     7
 10
-4.464641082
 20
6.7885053764
 30
0.0
  0
VERTEX
  5
16A
  8
0
  6
CONTINUOUS
 62
     7
 10
-4.4573392891
 20
6.7896849267
 30
0.0
  0
SEQEND
  5
19E
  8
0
  6
CONTINUOUS
 62
     7
  0
POLYLINE
  5
AC
  8
0
  6
CONTINUOUS
 62
     7
 66
     1
 10
0.0
 20
0.0
 30
0.0
 70
   128
  0
VERTEX
  5
16B
  8
0
  6
CONTINUOUS
 62
     7
 10
-4.4573392891
 20
6.7896849267
 30
0.0
  0
VERTEX
  5
16C
  8
0
  6
CONTINUOUS
 62
     7
 10
-4.4556345502
 20
6.789758538
 30
0.0
  0
VERTEX
  5
16D
  8
0
  6
CONTINUOUS
 62
     7
 10
-4.4543080146
 20
6.7899485158
 30
0.0
  0
SEQEND
  5
19F
  8
0
  6
CONTINUOUS
 62
     7
  0
POLYLINE
  5
B1
  8
0
  6
CONTINUOUS
 62
     7
 66
     1
 10
0.0
 20
0.0
 30
0.0
 70
   128
  0
VERTEX
  5
16E
  8
0
  6
CONTINUOUS
 62
     7
 10
-4.4594480018
 20
6.8160877668
 30
0.0
  0
VERTEX
  5
16F
  8
0
  6
CONTINUOUS
 62
     7
 10
-4.4611423073
 20
6.8158895563
 30
0.0
  0
VERTEX
  5
170
  8
0
  6
CONTINUOUS
 62
     7
 10
-4.4624792762
 20
6.8157802462
 30
0.0
  0
SEQEND
  5
1A0
  8
0
  6
CONTINUOUS
 62
     7
  0
POLYLINE
  5
B2
  8
0
  6
CONTINUOUS
 62
     7
 66
     1
 10
0.0
 20
0.0
 30
0.0
 70
   128
  0
VERTEX
  5
171
  8
0
  6
CONTINUOUS
 62
     7
 10
-4.4624792762
 20
6.8157802462
 30
0.0
  0
VERTEX
  5
172
  8
0
  6
CONTINUOUS
 62
     7
 10
-4.4741564576
 20
6.8137474295
 30
0.0
  0
VERTEX
  5
173
  8
0
  6
CONTINUOUS
 62
     7
 10
-4.4857164038
 20
6.8111191899
 30
0.0
  0
VERTEX
  5
174
  8
0
  6
CONTINUOUS
 62
     7
 10
-4.4967929581
 20
6.806924635
 30
0.0
  0
VERTEX
  5
175
  8
0
  6
CONTINUOUS
 62
     7
 10
-4.5043674715
 20
6.80229295
 30
0.0
  0
VERTEX
  5
176
  8
0
  6
CONTINUOUS
 62
     7
 10
-4.5108050578
 20
6.7961854124
 30
0.0
  0
VERTEX
  5
177
  8
0
  6
CONTINUOUS
 62
     7
 10
-4.515017789
 20
6.7884063666
 30
0.0
  0
VERTEX
  5
178
  8
0
  6
CONTINUOUS
 62
     7
 10
-4.5162514498
 20
6.77962461
 30
0.0
  0
SEQEND
  5
1A1
  8
0
  6
CONTINUOUS
 62
     7
  0
POLYLINE
  5
B3
  8
0
  6
CONTINUOUS
 62
     7
 66
     1
 10
0.0
 20
0.0
 30
0.0
 70
   128
  0
VERTEX
  5
179
  8
0
  6
CONTINUOUS
 62
     7
 10
-4.5162514498
 20
6.77962461
 30
0.0
  0
VERTEX
  5
17A
  8
0
  6
CONTINUOUS
 62
     7
 10
-4.5160852251
 20
6.7774336739
 30
0.0
  0
VERTEX
  5
17B
  8
0
  6
CONTINUOUS
 62
     7
 10
-4.5159439292
 20
6.7757147052
 30
0.0
  0
SEQEND
  5
1A2
  8
0
  6
CONTINUOUS
 62
     7
  0
POLYLINE
  5
B5
  8
0
  6
CONTINUOUS
 62
     7
 66
     1
 10
0.0
 20
0.0
 30
0.0
 70
   128
  0
VERTEX
  5
17C
  8
0
  6
CONTINUOUS
 62
     7
 10
-4.4719245518
 20
6.7349901914
 30
0.0
  0
VERTEX
  5
17D
  8
0
  6
CONTINUOUS
 62
     7
 10
-4.4686916363
 20
6.7345183266
 30
0.0
  0
VERTEX
  5
17E
  8
0
  6
CONTINUOUS
 62
     7
 10
-4.4661255919
 20
6.7344190817
 30
0.0
  0
SEQEND
  5
1A3
  8
0
  6
CONTINUOUS
 62
     7
  0
POLYLINE
  5
B6
  8
0
  6
CONTINUOUS
 62
     7
 66
     1
 10
0.0
 20
0.0
 30
0.0
 70
   128
  0
VERTEX
  5
17F
  8
0
  6
CONTINUOUS
 62
     7
 10
-4.4661255919
 20
6.7344190817
 30
0.0
  0
VERTEX
  5
180
  8
0
  6
CONTINUOUS
 62
     7
 10
-4.457896998
 20
6.7357757544
 30
0.0
  0
VERTEX
  5
181
  8
0
  6
CONTINUOUS
 62
     7
 10
-4.4521553704
 20
6.7389440277
 30
0.0
  0
SEQEND
  5
1A4
  8
0
  6
CONTINUOUS
 62
     7
  0
POLYLINE
  5
B7
  8
0
  6
CONTINUOUS
 62
     7
 66
     1
 10
0.0
 20
0.0
 30
0.0
 70
   128
  0
VERTEX
  5
182
  8
0
  6
CONTINUOUS
 62
     7
 10
-4.4521553704
 20
6.7389440277
 30
0.0
  0
VERTEX
  5
183
  8
0
  6
CONTINUOUS
 62
     7
 10
-4.4517116112
 20
6.7394022126
 30
0.0
  0
VERTEX
  5
184
  8
0
  6
CONTINUOUS
 62
     7
 10
-4.4515403292
 20
6.7398665895
 30
0.0
  0
SEQEND
  5
1A5
  8
0
  6
CONTINUOUS
 62
     7
  0
POLYLINE
  5
B8
  8
0
  6
CONTINUOUS
 62
     7
 66
     1
 10
0.0
 20
0.0
 30
0.0
 70
   128
  0
VERTEX
  5
185
  8
0
  6
CONTINUOUS
 62
     7
 10
-4.4515403292
 20
6.7398665895
 30
0.0
  0
VERTEX
  5
186
  8
0
  6
CONTINUOUS
 62
     7
 10
-4.4522849435
 20
6.7458006086
 30
0.0
  0
VERTEX
  5
187
  8
0
  6
CONTINUOUS
 62
     7
 10
-4.452462891
 20
6.750498016
 30
0.0
  0
SEQEND
  5
1A6
  8
0
  6
CONTINUOUS
 62
     7
  0
POLYLINE
  5
D1
  8
0
  6
CONTINUOUS
 62
     7
 66
     1
 10
0.0
 20
0.0
 30
0.0
 70
   128
  0
VERTEX
  5
188
  8
0
  6
CONTINUOUS
 62
     7
 10
-4.4008433616
 20
6.8066864228
 30
0.0
  0
VERTEX
  5
189
  8
0
  6
CONTINUOUS
 62
     7
 10
-4.4006784524
 20
6.8083852896
 30
0.0
  0
VERTEX
  5
18A
  8
0
  6
CONTINUOUS
 62
     7
 10
-4.400535841
 20
6.8097176973
 30
0.0
  0
SEQEND
  5
1A7
  8
0
  6
CONTINUOUS
 62
     7
  0
LINE
  5
D2
  8
0
  6
CONTINUOUS
 62
     7
 10
-4.0878611441
 20
6.6417027744
 30
0.0
 11
-3.9357952277
 21
6.6007637139
 31
0.0
  0
LINE
  5
D3
  8
0
  6
CONTINUOUS
 62
     7
 10
-3.9357952277
 20
6.6007637139
 30
0.0
 11
-3.9529187279
 21
6.5569860795
 31
0.0
  0
LINE
  5
D4
  8
0
  6
CONTINUOUS
 62
     7
 10
-4.0629138964
 20
6.4819001482
 30
0.0
 11
-4.6627534507
 21
6.4819001482
 31
0.0
  0
LINE
  5
D5
  8
0
  6
CONTINUOUS
 62
     7
 10
-4.4515403292
 20
6.8634459393
 30
0.0
 11
-4.4570317685
 21
6.8634459393
 31
0.0
  0
LINE
  5
D6
  8
0
  6
CONTINUOUS
 62
     7
 10
-4.4579543303
 20
6.836428058
 30
0.0
 11
-4.4567242479
 21
6.836428058
 31
0.0
  0
LINE
  5
D7
  8
0
  6
CONTINUOUS
 62
     7
 10
-4.4375701076
 20
6.8221503158
 30
0.0
 11
-4.4375701076
 21
6.8209641649
 31
0.0
  0
LINE
  5
D8
  8
0
  6
CONTINUOUS
 62
     7
 10
-4.4384926694
 20
6.7571756061
 30
0.0
 11
-4.4384926694
 21
6.7519916874
 31
0.0
  0
LINE
  5
D9
  8
0
  6
CONTINUOUS
 62
     7
 10
-4.4224137352
 20
6.7313438757
 30
0.0
 11
-4.4214911734
 21
6.7313438757
 31
0.0
  0
LINE
  5
DA
  8
0
  6
CONTINUOUS
 62
     7
 10
-4.4512767401
 20
6.6891696219
 30
0.0
 11
-4.4512767401
 21
6.6961547327
 31
0.0
  0
LINE
  5
DB
  8
0
  6
CONTINUOUS
 62
     7
 10
-4.4536929734
 20
6.8883551079
 30
0.0
 11
-4.4521553704
 21
6.8883551079
 31
0.0
  0
LINE
  5
DC
  8
0
  6
CONTINUOUS
 62
     7
 10
-4.402073444
 20
6.7754071846
 30
0.0
 11
-4.4014584028
 21
6.7851160492
 31
0.0
  0
LINE
  5
DD
  8
0
  6
CONTINUOUS
 62
     7
 10
-4.400535841
 20
6.8003163532
 30
0.0
 11
-4.400535841
 21
6.8033476277
 31
0.0
  0
LINE
  5
DE
  8
0
  6
CONTINUOUS
 62
     7
 10
-4.452462891
 20
6.750498016
 30
0.0
 11
-4.452462891
 21
6.753836811
 31
0.0
  0
LINE
  5
DF
  8
0
  6
CONTINUOUS
 62
     7
 10
-4.4521553704
 20
6.7571756061
 30
0.0
 11
-4.4521553704
 21
6.7638531963
 31
0.0
  0
LINE
  5
E0
  8
0
  6
CONTINUOUS
 62
     7
 10
-4.4800958135
 20
6.7744846228
 30
0.0
 11
-4.4800958135
 21
6.7757147052
 31
0.0
  0
LINE
  5
E1
  8
0
  6
CONTINUOUS
 62
     7
 10
-4.4543080146
 20
6.7899485158
 30
0.0
 11
-4.4536929734
 21
6.7908710776
 31
0.0
  0
LINE
  5
E2
  8
0
  6
CONTINUOUS
 62
     7
 10
-4.4536929734
 20
6.7908710776
 30
0.0
 11
-4.4536929734
 21
6.8160877668
 31
0.0
  0
LINE
  5
E3
  8
0
  6
CONTINUOUS
 62
     7
 10
-4.4546155352
 20
6.8170103286
 30
0.0
 11
-4.4594480018
 21
6.8160877668
 31
0.0
  0
LINE
  5
E4
  8
0
  6
CONTINUOUS
 62
     7
 10
-4.2796881458
 20
6.7123360935
 30
0.0
 11
-4.2195919594
 21
6.773306419
 31
0.0
  0
LINE
  5
E5
  8
0
  6
CONTINUOUS
 62
     7
 10
-4.2195919594
 20
6.773306419
 30
0.0
 11
-4.2195919594
 21
6.687697236
 31
0.0
  0
LINE
  5
E6
  8
0
  6
CONTINUOUS
 62
     7
 10
-4.1995919594
 20
6.687697236
 30
0.0
 11
-4.1995919594
 21
6.7737994844
 31
0.0
  0
LINE
  5
E7
  8
0
  6
CONTINUOUS
 62
     7
 10
-4.1995919594
 20
6.7737994844
 30
0.0
 11
-4.1382704758
 21
6.7133571745
 31
0.0
  0
LINE
  5
E8
  8
0
  6
CONTINUOUS
 62
     7
 10
-4.1242308169
 20
6.7276010496
 30
0.0
 11
-4.1852011424
 21
6.787697236
 31
0.0
  0
LINE
  5
E9
  8
0
  6
CONTINUOUS
 62
     7
 10
-4.1852011424
 20
6.787697236
 30
0.0
 11
-4.0995919594
 21
6.787697236
 31
0.0
  0
LINE
  5
EA
  8
0
  6
CONTINUOUS
 62
     7
 10
-4.0995919594
 20
6.807697236
 30
0.0
 11
-4.1856942078
 21
6.807697236
 31
0.0
  0
LINE
  5
EB
  8
0
  6
CONTINUOUS
 62
     7
 10
-4.1856942078
 20
6.807697236
 30
0.0
 11
-4.1252518979
 21
6.8690187196
 31
0.0
  0
LINE
  5
EC
  8
0
  6
CONTINUOUS
 62
     7
 10
-4.139495773
 20
6.8830583785
 30
0.0
 11
-4.1995919594
 21
6.822088053
 31
0.0
  0
LINE
  5
ED
  8
0
  6
CONTINUOUS
 62
     7
 10
-4.1995919594
 20
6.822088053
 30
0.0
 11
-4.1995919594
 21
6.907697236
 31
0.0
  0
LINE
  5
EE
  8
0
  6
CONTINUOUS
 62
     7
 10
-4.2195919594
 20
6.907697236
 30
0.0
 11
-4.2195919594
 21
6.8215949876
 31
0.0
  0
LINE
  5
EF
  8
0
  6
CONTINUOUS
 62
     7
 10
-4.2195919594
 20
6.8215949876
 30
0.0
 11
-4.2809134431
 21
6.8820372975
 31
0.0
  0
LINE
  5
F0
  8
0
  6
CONTINUOUS
 62
     7
 10
-4.294953102
 20
6.8677934224
 30
0.0
 11
-4.2339827764
 21
6.807697236
 31
0.0
  0
LINE
  5
F1
  8
0
  6
CONTINUOUS
 62
     7
 10
-4.2339827764
 20
6.807697236
 30
0.0
 11
-4.3195919594
 21
6.807697236
 31
0.0
  0
LINE
  5
F2
  8
0
  6
CONTINUOUS
 62
     7
 10
-4.3195919594
 20
6.787697236
 30
0.0
 11
-4.233489711
 21
6.787697236
 31
0.0
  0
LINE
  5
F3
  8
0
  6
CONTINUOUS
 62
     7
 10
-4.233489711
 20
6.787697236
 30
0.0
 11
-4.2939320209
 21
6.7263757524
 31
0.0
  0
ARC
  5
F4
  8
0
  6
CONTINUOUS
 62
     7
 10
-4.0629138964
 20
6.6000103844
 30
0.0
 40
0.1181102362204705
 50
270.0
 51
338.637185226
  0
ARC
  5
F5
  8
0
  6
CONTINUOUS
 62
     7
 10
-4.6627534507
 20
6.6590655025
 30
0.0
 40
0.1771653543307067
 50
136.3487240582
 51
270.0
  0
ARC
  5
F6
  8
0
  6
CONTINUOUS
 62
     7
 10
-3.9363504038
 20
5.966080561
 30
0.0
 40
1.181102362204724
 50
40.3664319188
 51
136.3487240582
  0
ARC
  5
F7
  8
0
  6
CONTINUOUS
 62
     7
 10
-3.1414360665
 20
6.6418030435
 30
0.0
 40
0.137795275590552
 50
208.1814154271
 51
40.3664319188
  0
ARC
  5
F8
  8
0
  6
CONTINUOUS
 62
     7
 10
-3.7737255953
 20
6.3030363822
 30
0.0
 40
0.579528151456743
 50
28.1814154271
 51
89.9668958479
  0
ARC
  5
F9
  8
0
  6
CONTINUOUS
 62
     7
 10
-3.7735788079
 20
6.5570919432
 30
0.0
 40
0.3254725481419973
 50
89.9668958479
 51
164.932131242
  0
ARC
  5
FA
  8
0
  6
CONTINUOUS
 62
     7
 10
-4.4534964382
 20
6.8105154667
 30
0.0
 40
0.0529666054449762
 50
359.1369930319
 51
87.8835289638
  0
ARC
  5
FB
  8
0
  6
CONTINUOUS
 62
     7
 10
-4.4585472732
 20
6.8105634667
 30
0.0
 40
0.0529041837626112
 50
88.3584681067
 51
158.3776424831
  0
ARC
  5
FC
  8
0
  6
CONTINUOUS
 62
     7
 10
-4.4771559226
 20
6.8219619459
 30
0.0
 40
0.0010209221762384
 50
257.7775562346
 51
353.2977993494
  0
ARC
  5
FD
  8
0
  6
CONTINUOUS
 62
     7
 10
-4.4595323376
 20
6.8197632944
 30
0.0
 40
0.0167393086044316
 50
84.5907198519
 51
172.8637895416
  0
ARC
  5
FE
  8
0
  6
CONTINUOUS
 62
     7
 10
-4.4534404686
 20
6.8208559378
 30
0.0
 40
0.0159230578951672
 50
4.662692272
 51
94.2320774282
  0
ARC
  5
FF
  8
0
  6
CONTINUOUS
 62
     7
 10
-4.4368794499
 20
6.7399636072
 30
0.0
 40
0.0007220246374636
 50
163.0495035253
 51
260.4694566443
  0
ARC
  5
100
  8
0
  6
CONTINUOUS
 62
     7
 10
-4.4357808446
 20
6.816403671
 30
0.0
 40
0.0862517447968245
 50
279.5363905108
 51
359.585864398
  0
ARC
  5
101
  8
0
  6
CONTINUOUS
 62
     7
 10
-4.4558518768
 20
6.8003881285
 30
0.0
 40
0.1074289118284293
 50
8.2375305327
 51
88.3563160982
  0
ARC
  5
102
  8
0
  6
CONTINUOUS
 62
     7
 10
-4.4473098765
 20
6.7891213939
 30
0.0
 40
0.1187770282670741
 50
92.6349869911
 51
175.4851462034
  0
ARC
  5
103
  8
0
  6
CONTINUOUS
 62
     7
 10
-4.4452403141
 20
6.8080156734
 30
0.0
 40
0.1208554918865489
 50
184.5295946923
 51
267.0119027985
  0
ARC
  5
104
  8
0
  6
CONTINUOUS
 62
     7
 10
-4.4018713518
 20
6.6990604316
 30
0.0
 40
0.0494907615646888
 50
170.3491261488
 51
183.365882297
  0
ARC
  5
105
  8
0
  6
CONTINUOUS
 62
     7
 10
-4.4494995098
 20
6.800896319
 30
0.0
 40
0.0935462697353617
 50
182.4278200377
 51
269.2881571592
  0
ARC
  5
106
  8
0
  6
CONTINUOUS
 62
     7
 10
-4.4499654239
 20
6.7954211481
 30
0.0
 40
0.0930086851115464
 50
92.296882984
 51
179.0682326905
  0
ARC
  5
107
  8
0
  6
CONTINUOUS
 62
     7
 10
-4.4507879389
 20
6.8071912557
 30
0.0
 40
0.0811753704738415
 50
4.5788281919
 51
90.9652159176
  0
ARC
  5
108
  8
0
  6
CONTINUOUS
 62
     7
 10
-4.4302718509
 20
6.8091257778
 30
0.0
 40
0.0605710234335393
 50
296.1602344403
 51
4.3040007366
  0
ARC
  5
109
  8
0
  6
CONTINUOUS
 62
     7
 10
-4.4545462647
 20
6.8161570373
 30
0.0
 40
0.0008560984369579
 50
355.3588891883
 51
94.6411108116
  0
ARC
  5
10A
  8
0
  6
CONTINUOUS
 62
     7
 10
-4.4675116337
 20
6.7839128065
 30
0.0
 40
0.0491212388946523
 50
189.6073509241
 51
264.845754428
  0
ARC
  5
10B
  8
0
  6
CONTINUOUS
 62
     7
 10
-4.2868100834
 20
6.7193559229
 30
0.0
 40
0.0100000000000001
 50
135.4136867592
 51
315.4136867592
  0
ARC
  5
10C
  8
0
  6
CONTINUOUS
 62
     7
 10
-4.2095919594
 20
6.687697236
 30
0.0
 40
0.0100000000000007
 50
180.0
 51
0.0
  0
ARC
  5
10D
  8
0
  6
CONTINUOUS
 62
     7
 10
-4.1312506463
 20
6.7204791121
 30
0.0
 40
0.0100000000000058
 50
225.4136867592
 51
45.4136867593
  0
ARC
  5
10E
  8
0
  6
CONTINUOUS
 62
     7
 10
-4.0995919594
 20
6.797697236
 30
0.0
 40
0.0100000000000025
 50
270.0
 51
90.0
  0
ARC
  5
10F
  8
0
  6
CONTINUOUS
 62
     7
 10
-4.1323738355
 20
6.8760385491
 30
0.0
 40
0.0099999999999976
 50
315.4136867592
 51
135.4136867592
  0
ARC
  5
110
  8
0
  6
CONTINUOUS
 62
     7
 10
-4.2095919594
 20
6.907697236
 30
0.0
 40
0.0100000000000025
 50
360.0
 51
180.0
  0
ARC
  5
111
  8
0
  6
CONTINUOUS
 62
     7
 10
-4.2879332725
 20
6.8749153599
 30
0.0
 40
0.0100000000000064
 50
45.4136867592
 51
225.4136867593
  0
ARC
  5
112
  8
0
  6
CONTINUOUS
 62
     7
 10
-4.3195919594
 20
6.797697236
 30
0.0
 40
0.0100000000000016
 50
90.0
 51
270.0
  0
ENDSEC
  0
EOF
